<?xml version="1.0" encoding="UTF-8"?>
<svg width="1200pt" height="1200pt" version="1.1" viewBox="0 0 1200 1200" xmlns="http://www.w3.org/2000/svg">
 <path d="m268.31 101.77h256.74c13.875 0 26.531 5.6719 35.625 14.812 9.1406 9.1406 14.812 21.75 14.812 35.672v144.19c0 13.922-5.6719 26.531-14.812 35.625-9.1406 9.1406-21.75 14.812-35.625 14.812h-256.74c-13.875 0-26.531-5.6719-35.672-14.812s-14.812-21.75-14.812-35.672v-144.19c0-13.875 5.6719-26.531 14.812-35.672s21.75-14.812 35.672-14.812zm413.95 559.36c7.4531-6.5156 18.797-5.7656 25.312 1.6875s5.7656 18.797-1.6875 25.312l-21.75 19.078h398.39c5.9062 0 11.297-2.3906 15.188-6.2812 3.8906-3.8906 6.2812-9.2812 6.2812-15.188v-171.56c0-5.9062-2.3906-11.297-6.2812-15.188-3.8906-3.8906-9.2812-6.2812-15.188-6.2812h-39.469c-9.9375 0-18-8.0625-18-18s8.0625-18 18-18h39.469c15.797 0 30.141 6.4688 40.5 16.875 10.453 10.453 16.922 24.797 16.922 40.594v171.56c0 15.797-6.4688 30.141-16.875 40.5-10.453 10.453-24.797 16.922-40.594 16.922h-398.39l21.75 19.125c7.4531 6.5156 8.2031 17.859 1.6875 25.312s-17.859 8.2031-25.312 1.6875l-57.609-50.578-1.7344-1.7344c-6.5156-7.4531-5.7656-18.797 1.6875-25.312l57.656-50.578zm-188.16 287.58c-7.4531-6.5156-8.2031-17.859-1.6875-25.312 6.5156-7.4531 17.859-8.2031 25.312-1.6875l57.656 50.625c7.4531 6.5156 8.2031 17.859 1.6875 25.312l-1.7344 1.7344-57.609 50.578c-7.4531 6.5156-18.797 5.7656-25.312-1.6875-6.5156-7.4531-5.7656-18.797 1.6875-25.312l21.75-19.078h-398.39c-15.797 0-30.188-6.4688-40.594-16.875l-1.0781-1.2188c-9.75-10.312-15.797-24.188-15.797-39.375v-171.56c0-15.797 6.4688-30.188 16.875-40.594s24.797-16.875 40.594-16.875h39.469c9.9375 0 18 8.0625 18 18s-8.0625 18-18 18h-39.469c-5.8594 0-11.25 2.4375-15.141 6.3281s-6.3281 9.2344-6.3281 15.141v171.56c0 5.5781 2.1562 10.688 5.5781 14.438l0.70312 0.70312c3.8906 3.8906 9.2812 6.3281 15.141 6.3281h398.39l-21.75-19.125zm0-510.98c-7.4531-6.5156-8.2031-17.859-1.6875-25.312 6.5156-7.4531 17.859-8.2031 25.312-1.6875l57.656 50.625c7.4531 6.5156 8.2031 17.859 1.6875 25.312l-1.7344 1.7344-57.609 50.578c-7.4531 6.5156-18.797 5.7656-25.312-1.6875-6.5156-7.4531-5.7656-18.797 1.6875-25.312l21.75-19.078h-398.39c-15.797 0-30.188-6.4688-40.594-16.875l-1.0781-1.2188c-9.75-10.312-15.797-24.188-15.797-39.375v-171.56c0-15.75 6.4688-30.141 16.875-40.547 10.453-10.453 24.844-16.922 40.594-16.922h39.469c9.9375 0 18 8.0625 18 18s-8.0625 18-18 18h-39.469c-5.9062 0-11.297 2.3906-15.188 6.2812s-6.2812 9.2344-6.2812 15.188v171.56c0 5.5781 2.1562 10.688 5.5781 14.438l0.70312 0.70312c3.8906 3.8906 9.2812 6.3281 15.141 6.3281h398.39l-21.75-19.125zm180.84 415.45h256.74c13.922 0 26.531 5.6719 35.672 14.812l1.125 1.2188c8.4844 9.0469 13.688 21.188 13.688 34.453v144.14c0 13.828-5.6719 26.438-14.812 35.578-9.2344 9.2344-21.844 14.859-35.672 14.859h-256.74c-13.875 0-26.531-5.6719-35.672-14.812s-14.812-21.75-14.812-35.672v-144.14c0-13.875 5.6719-26.531 14.812-35.672s21.75-14.812 35.672-14.812zm256.74 36h-256.74c-3.9375 0-7.5938 1.6406-10.219 4.2656s-4.2656 6.2344-4.2656 10.219v144.14c0 3.9375 1.6406 7.5938 4.2656 10.219s6.2344 4.2656 10.219 4.2656h256.74c3.9844 0 7.6406-1.5938 10.219-4.1719 2.6719-2.6719 4.2656-6.2812 4.2656-10.266v-144.14c0-3.7031-1.3594-7.0312-3.6094-9.5625l-0.65625-0.65625c-2.625-2.625-6.2344-4.2656-10.219-4.2656zm-663.37-286.45h256.74c13.875 0 26.531 5.6719 35.672 14.812s14.812 21.75 14.812 35.672v144.14c0 13.875-5.6719 26.531-14.812 35.672s-21.75 14.812-35.625 14.812h-256.74c-13.875 0-26.531-5.6719-35.672-14.812s-14.812-21.75-14.812-35.672v-144.14c0-13.828 5.6719-26.484 14.859-35.625 9.0938-9.1875 21.703-14.859 35.625-14.859zm256.74 36h-256.74c-3.9375 0-7.5938 1.6406-10.219 4.2656-2.6719 2.5781-4.2656 6.1875-4.2656 10.219v144.14c0 3.9375 1.6406 7.5938 4.2656 10.219s6.2344 4.2656 10.219 4.2656h256.74c3.9375 0 7.5469-1.6406 10.172-4.2656s4.2656-6.2344 4.2656-10.219v-144.14c0-3.9375-1.6406-7.5938-4.2656-10.219s-6.2344-4.2656-10.219-4.2656zm149.9-286.45h256.74c13.828 0 26.438 5.6719 35.578 14.812 9.2344 9.2344 14.859 21.844 14.859 35.672v144.14c0 13.875-5.6719 26.531-14.812 35.672s-21.75 14.812-35.672 14.812h-256.74c-13.922 0-26.531-5.6719-35.625-14.812-9.1406-9.1406-14.812-21.75-14.812-35.672v-144.14c0-13.875 5.6719-26.531 14.812-35.672s21.75-14.812 35.672-14.812zm256.74 36h-256.74c-3.9375 0-7.5938 1.6406-10.219 4.2656s-4.2656 6.2344-4.2656 10.219v144.14c0 3.9375 1.6406 7.5938 4.2656 10.219s6.2344 4.2656 10.172 4.2656h256.74c3.9375 0 7.5938-1.6406 10.219-4.2656s4.2656-6.2344 4.2656-10.219v-144.14c0-3.9844-1.5938-7.6406-4.1719-10.219-2.6719-2.6719-6.2812-4.2656-10.266-4.2656zm-406.64-250.45h-256.74c-3.9375 0-7.5938 1.6406-10.219 4.2656s-4.2656 6.2344-4.2656 10.219v144.19c0 3.9375 1.6406 7.5938 4.2656 10.219s6.2344 4.2656 10.219 4.2656h256.74c3.9375 0 7.5469-1.6406 10.172-4.2656s4.2656-6.2344 4.2656-10.172v-144.19c0-3.9375-1.6406-7.5938-4.2656-10.219s-6.2344-4.2656-10.172-4.2656z"/>
</svg>
