<?xml version="1.0" encoding="UTF-8"?>
<svg width="1200pt" height="1200pt" version="1.1" viewBox="0 0 1200 1200" xmlns="http://www.w3.org/2000/svg">
 <path d="m948 352.8c19-10.199 32-29.801 32-52.801 0-33-27-60-60-60-26 0-48 16.801-56.398 40h-186.6c-3.1992-12.199-8.8008-23.398-17.199-32.801v-32.801c0-27.602-10.801-53.398-30.199-72.801l-15.602-15.801c-7.8008-7.8008-20.602-7.8008-28.398 0l-15.602 15.801c-19.199 19.402-30 45.203-30 72.801v32.801c-8.3984 9.3984-14 20.602-17.199 32.801h-186.6c-8.1992-23.199-30.199-40-56.398-40-33 0-60 27-60 60 0 23 13 42.602 32 52.801l-124 266.2c-4.8008 6-7.8008 13-7.8008 21 0 77.199 71.801 140 160 140s160-62.801 160-140c0-8-3-15-7.8008-21l-124.2-266.2c13-7 23.199-18.602 28.199-32.801h186.6c3.1992 12.199 8.8008 23.398 17.199 32.801v607.2h-60c-55.199 0-100 44.801-100 100 0 11 9 20 20 20h400c11 0 20-9 20-20 0-55.199-44.801-100-100-100h-60v-607.2c8.3984-9.3984 14-20.602 17.199-32.801h186.6c5 14.199 15.199 25.801 28.199 32.801l-124.2 266.2c-4.8008 6-7.8008 13-7.8008 21 0 77.199 71.801 140 160 140s160-62.801 160-140c0-8-3-15-7.8008-21zm-28-72.801c11 0 20 9 20 20s-9 20-20 20-20-9-20-20 9-20 20-20zm-640 0c11 0 20 9 20 20s-9 20-20 20-20-9-20-20 9-20 20-20zm0 380c-62.801 0-103.2-11.602-116.6-20 13.398-8.3984 53.801-20 116.6-20s103.2 11.602 116.6 20c-13.402 8.3984-53.801 20-116.6 20zm0-80c-8.8008 0-54.398 0.60156-94.602 10l94.602-202.8 94.602 202.8c-40.203-9.3984-85.801-10-94.602-10zm640-192.8 94.602 202.8c-40.203-9.3984-85.801-10-94.602-10s-54.398 0.60156-94.602 10zm0 272.8c-62.801 0-103.2-11.602-116.6-20 13.398-8.3984 53.801-20 116.6-20s103.2 11.602 116.6 20c-13.402 8.3984-53.801 20-116.6 20z"/>
</svg>
