<?xml version="1.0" encoding="UTF-8"?>
<svg width="1200pt" height="1200pt" version="1.1" viewBox="0 0 1200 1200" xmlns="http://www.w3.org/2000/svg">
 <path d="m552.91 819.22c-58.141-0.007812-113.89-23.109-155-64.227-41.105-41.113-64.195-96.875-64.191-155.01 0.003906-58.141 23.102-113.9 64.215-155.01 41.113-41.105 96.875-64.199 155.01-64.199 58.141 0.003906 113.9 23.102 155.01 64.215 41.109 41.109 64.207 96.867 64.207 155.01-0.046875 58.133-23.164 113.87-64.27 154.97-41.105 41.105-96.848 64.211-154.98 64.254zm168.12-398.43h25.566c4.7656 0.03125 9.1758-2.5195 11.52-6.6719l64.738-112.08c21.086 7.0898 44.32 3.1992 61.953-10.367 17.629-13.57 27.336-35.035 25.883-57.234-1.4531-22.199-13.875-42.215-33.125-53.367-19.246-11.156-42.789-11.984-62.773-2.207s-33.781 28.875-36.785 50.918c-3.0078 22.043 5.1719 44.133 21.809 58.906l-60.871 105.47h-51.793c11.996 7.9258 23.309 16.832 33.828 26.629zm136.5 73.668 123.3-119.46c-11.914-18.707-13.727-42.117-4.832-62.434 8.8984-20.316 27.328-34.863 49.156-38.793s44.176 3.2773 59.598 19.215c15.422 15.934 21.891 38.508 17.246 60.195-4.6445 21.688-19.789 39.633-40.383 47.855-20.598 8.2227-43.938 5.6445-62.242-6.8789l-127.17 123.18c-2.4688 2.4023-5.7656 3.7617-9.2109 3.7891h-77.215c-3.1875-9.0664-6.8594-17.961-10.992-26.641zm179.13 118.86c4.4414 21.727 19.418 39.816 39.938 48.234 20.52 8.4141 43.887 6.0508 62.305-6.3008 18.422-12.355 29.473-33.078 29.473-55.254 0-22.18-11.051-42.902-29.473-55.254-18.418-12.355-41.785-14.719-62.305-6.3008-20.52 8.4141-35.496 26.504-39.938 48.234h-238.21c0.83594 8.8594 0.83594 17.777 0 26.641zm-260.73 92.211v-0.003906c4.1406-8.5352 7.4375-17.457 9.8398-26.637h77.215c3.4453 0.027343 6.7422 1.3828 9.2109 3.7891l127.17 123.21c18.355-12.574 41.773-15.176 62.438-6.9336 20.668 8.2422 35.867 26.242 40.531 48 4.6641 21.754-1.8242 44.402-17.297 60.391-15.473 15.988-37.895 23.215-59.793 19.27-21.895-3.9492-40.387-18.547-49.301-38.934-8.918-20.383-7.0859-43.871 4.8789-62.629l-123.3-119.46zm46.926 192.39-64.738-112.05c-2.3438-4.1523-6.7539-6.7031-11.52-6.6719h-27.965c-9.5352 8.8672-20.027 17.766-31.48 26.691h51.789l60.859 105.45c-16.332 14.613-24.316 36.402-21.293 58.109 3.0195 21.707 16.652 40.484 36.355 50.082 19.707 9.5938 42.895 8.75 61.848-2.2539 18.957-11.004 31.188-30.723 32.621-52.594 1.4336-21.871-8.1133-43.02-25.469-56.406-17.352-13.387-40.23-17.254-61.02-10.316zm-269.95 1.4375c-79.398 0-155.54-31.539-211.69-87.684-56.141-56.141-87.68-132.29-87.68-211.68s31.539-155.54 87.68-211.68c56.145-56.145 132.29-87.684 211.69-87.684 3.5352 0.011719 6.9336-1.3867 9.4336-3.8906 2.5-2.5039 3.8945-5.8984 3.8789-9.4375v-195.31c0.015625-3.5352-1.3828-6.9336-3.8828-9.4336-2.5-2.5039-5.8945-3.9023-9.4297-3.8945h-73.012c-8-0.003907-15.746 2.8203-21.863 7.9805-6.1211 5.1562-10.215 12.312-11.559 20.203l-14.969 86.551c-27.754 8.3711-54.57 19.57-80.035 33.422l-72-50.828c-6.5352-4.625-14.492-6.7852-22.469-6.1055-7.9766 0.68359-15.453 4.1641-21.109 9.832l-103.26 103.3c-5.6875 5.6406-9.1797 13.121-9.8516 21.102s1.5234 15.941 6.1875 22.453l51.535 73.125v-0.003906c-13.281 25.023-23.988 51.324-31.957 78.508l-88.812 15.336c-7.8867 1.3359-15.047 5.4297-20.203 11.551-5.1562 6.1172-7.9727 13.867-7.9531 21.871v146.06c-0.019531 8.0039 2.8008 15.758 7.9531 21.883 5.1562 6.125 12.312 10.227 20.203 11.578l90.707 15.637c8.1719 26.172 18.875 51.484 31.957 75.574l-53.418 75.789c-4.6719 6.5117-6.8711 14.473-6.1992 22.457 0.66797 7.9844 4.1602 15.469 9.8516 21.109l103.29 103.29c5.6523 5.668 13.129 9.1484 21.105 9.832 7.9766 0.67969 15.938-1.4805 22.473-6.1055l76.887-54.316c23.652 12.512 48.453 22.719 74.059 30.48l16.016 92.93h0.003906c1.3438 7.8906 5.4375 15.047 11.555 20.207 6.1172 5.1562 13.863 7.9844 21.867 7.9766h73.012c3.5352 0.007812 6.9297-1.3906 9.4297-3.8945 2.4961-2.5 3.8945-5.8945 3.8828-9.4336v-195.32c0.019531-3.5352-1.375-6.9336-3.8711-9.4375-2.5-2.5039-5.8945-3.9023-9.4297-3.8906z" fill-rule="evenodd"/>
</svg>
