<?xml version="1.0" encoding="UTF-8" standalone="no"?><!DOCTYPE svg PUBLIC "-//W3C//DTD SVG 1.1//EN" "http://www.w3.org/Graphics/SVG/1.1/DTD/svg11.dtd"><svg width="100%" height="100%" viewBox="0 0 125 125" version="1.1" xmlns="http://www.w3.org/2000/svg" xmlns:xlink="http://www.w3.org/1999/xlink" xml:space="preserve" xmlns:serif="http://www.serif.com/" style="fill-rule:evenodd;clip-rule:evenodd;stroke-linejoin:round;stroke-miterlimit:2;"><g id="Components"><g id="_4d242af2-080f-4c9d-85f3-bf09a0d3ece3_1"><path d="M66.603,95.479c-1.366,-0.086 -2.754,-0.121 -4.134,-0.121c-1.395,-0 -2.767,0.035 -4.14,0.114c-1.707,-2.953 -3.685,-5.833 -5.87,-8.635c-3.521,0.42 -6.95,1.076 -10.244,1.939c2.27,2.559 4.326,5.234 6.161,7.972c6.097,9.205 9.54,19.259 9.54,28.486l9.092,0c-0.001,-9.227 3.457,-19.281 9.554,-28.486c1.828,-2.745 3.885,-5.42 6.154,-7.965l-10.238,-1.946c-2.198,2.801 -4.168,5.689 -5.875,8.642Z" style="fill:#43505b;fill-rule:nonzero;"/><path d="M67.015,0l-9.092,0c0,9.227 -3.458,19.281 -9.554,28.487c-1.828,2.745 -3.885,5.419 -6.168,7.964c3.301,0.885 6.723,1.519 10.251,1.947c2.206,-2.795 4.17,-5.69 5.877,-8.642c1.373,0.078 2.753,0.121 4.133,0.121c1.394,0 2.768,-0.036 4.141,-0.114c1.707,2.952 3.67,5.847 5.868,8.635c3.536,-0.42 6.959,-1.069 10.259,-1.94c-2.283,-2.559 -4.34,-5.233 -6.175,-7.971c-6.097,-9.206 -9.54,-19.26 -9.54,-28.487Z" style="fill:#51817c;fill-rule:nonzero;"/><path d="M124.931,58.051c-9.192,-0 -19.222,-3.452 -28.407,-9.577c-2.739,-1.819 -5.407,-3.879 -7.953,-6.161c-0.868,3.309 -1.522,6.745 -1.943,10.275c2.789,2.196 5.677,4.165 8.615,5.883c-0.077,1.377 -0.121,2.759 -0.121,4.157c0,1.369 0.044,2.753 0.121,4.128c-2.938,1.72 -5.826,3.687 -8.607,5.89c0.406,3.531 1.06,6.968 1.928,10.276c2.546,-2.282 5.214,-4.343 7.953,-6.161c9.192,-6.118 19.222,-9.583 28.414,-9.583l-0,-9.127Z" style="fill:#51817c;fill-rule:nonzero;"/><path d="M29.808,62.621c0,-1.383 -0.035,-2.773 -0.12,-4.143c2.937,-1.718 5.826,-3.687 8.608,-5.89c-0.406,-3.53 -1.061,-6.966 -1.943,-10.275c-2.539,2.274 -5.208,4.349 -7.939,6.161c-9.192,6.118 -19.222,9.584 -28.414,9.584l0,9.127c9.192,-0 19.222,3.451 28.407,9.576c2.745,1.811 5.414,3.886 7.967,6.16c0.854,-3.309 1.509,-6.745 1.929,-10.275c-2.789,-2.196 -5.678,-4.163 -8.615,-5.883c0.078,-1.375 0.12,-2.759 0.12,-4.142Z" style="fill:#51817c;fill-rule:nonzero;"/><path d="M86.628,52.588c-0.398,3.266 -0.598,6.617 -0.605,10.033c0,3.408 0.207,6.753 0.612,10.025c2.782,-2.203 5.67,-4.17 8.608,-5.89c-0.077,-1.375 -0.121,-2.759 -0.121,-4.128c0,-1.398 0.044,-2.78 0.121,-4.157c-2.938,-1.718 -5.826,-3.687 -8.615,-5.883Zm-24.159,33.643c-3.401,-0 -6.744,0.199 -10.01,0.605c2.185,2.802 4.163,5.683 5.87,8.636c1.373,-0.079 2.745,-0.114 4.14,-0.114c1.38,-0 2.768,0.035 4.133,0.121c1.708,-2.953 3.678,-5.84 5.876,-8.642c-3.271,-0.4 -6.609,-0.606 -10.009,-0.606Zm-32.781,-27.753c0.085,1.37 0.12,2.76 0.12,4.143c0,1.383 -0.043,2.767 -0.12,4.143c2.937,1.719 5.826,3.686 8.615,5.882c0.398,-3.265 0.597,-6.617 0.597,-10.025c0.007,-3.416 -0.199,-6.76 -0.604,-10.033c-2.782,2.203 -5.671,4.172 -8.608,5.89Zm56.94,-5.89c-0.398,3.266 -0.598,6.617 -0.605,10.033c0,3.408 0.207,6.753 0.612,10.025c2.782,-2.203 5.67,-4.17 8.608,-5.89c-0.077,-1.375 -0.121,-2.759 -0.121,-4.128c0,-1.398 0.044,-2.78 0.121,-4.157c-2.938,-1.718 -5.826,-3.687 -8.615,-5.883Zm-24.159,33.643c-3.401,-0 -6.744,0.199 -10.01,0.605c2.185,2.802 4.163,5.683 5.87,8.636c1.373,-0.079 2.745,-0.114 4.14,-0.114c1.38,-0 2.768,0.035 4.133,0.121c1.708,-2.953 3.678,-5.84 5.876,-8.642c-3.271,-0.4 -6.609,-0.606 -10.009,-0.606Zm-0.007,-56.354c-1.38,0 -2.76,-0.042 -4.133,-0.121c-1.707,2.952 -3.671,5.847 -5.877,8.642c3.273,0.4 6.609,0.607 10.01,0.607c3.4,-0 6.744,-0.2 10.009,-0.607c-2.198,-2.788 -4.161,-5.683 -5.869,-8.635c-1.372,0.079 -2.746,0.114 -4.14,0.114Zm0.007,56.354c-3.401,-0 -6.744,0.199 -10.01,0.605c2.185,2.802 4.163,5.683 5.87,8.636c1.373,-0.079 2.745,-0.114 4.14,-0.114c1.38,-0 2.768,0.035 4.133,0.121c1.708,-2.953 3.678,-5.84 5.876,-8.642c-3.271,-0.4 -6.609,-0.606 -10.009,-0.606Zm-32.781,-27.753c0.085,1.37 0.12,2.76 0.12,4.143c0,1.383 -0.043,2.767 -0.12,4.143c2.937,1.719 5.826,3.686 8.615,5.882c0.398,-3.265 0.597,-6.617 0.597,-10.025c0.007,-3.416 -0.199,-6.76 -0.604,-10.033c-2.782,2.203 -5.671,4.172 -8.608,5.89Zm32.774,-28.601c-1.38,0 -2.76,-0.042 -4.133,-0.121c-1.707,2.952 -3.671,5.847 -5.877,8.642c3.273,0.4 6.609,0.607 10.01,0.607c3.4,-0 6.744,-0.2 10.009,-0.607c-2.198,-2.788 -4.161,-5.683 -5.869,-8.635c-1.372,0.079 -2.746,0.114 -4.14,0.114Zm-10.003,56.96c2.185,2.802 4.163,5.682 5.87,8.635c1.372,-0.079 2.745,-0.114 4.14,-0.114c1.38,-0 2.768,0.035 4.133,0.121c1.708,-2.953 3.678,-5.84 5.876,-8.642c-3.272,-0.4 -6.609,-0.606 -10.009,-0.606c-3.401,-0 -6.744,0.199 -10.01,0.606Zm-13.559,-24.216c0.007,-3.416 -0.199,-6.76 -0.604,-10.033c-2.782,2.203 -5.671,4.172 -8.608,5.89c0.085,1.37 0.12,2.759 0.12,4.143c0,1.383 -0.043,2.767 -0.12,4.143c2.937,1.719 5.826,3.686 8.615,5.882c0.398,-3.265 0.597,-6.617 0.597,-10.025Zm37.655,-34.134c-3.215,0.656 -6.552,1.077 -9.952,1.276c-1.373,0.078 -2.747,0.114 -4.141,0.114c-1.38,0 -2.76,-0.042 -4.133,-0.121c-3.401,-0.185 -6.745,-0.613 -9.96,-1.269c-10.814,-2.182 -20.346,-6.845 -26.856,-13.37l-6.438,6.453c6.495,6.51 11.162,16.065 13.339,26.904c0.654,3.237 1.081,6.589 1.274,10.004c0.085,1.37 0.12,2.759 0.12,4.143c0,1.383 -0.043,2.767 -0.12,4.143c-0.193,3.415 -0.627,6.76 -1.281,9.997c-2.17,10.845 -6.829,20.393 -13.339,26.903l6.438,6.454c6.509,-6.525 16.049,-11.195 26.87,-13.37c3.215,-0.656 6.552,-1.077 9.953,-1.277c1.372,-0.078 2.745,-0.114 4.14,-0.114c1.38,-0 2.768,0.036 4.133,0.121c3.4,0.185 6.745,0.614 9.96,1.27c10.814,2.182 20.346,6.845 26.856,13.369l6.438,-6.453c-6.502,-6.517 -11.162,-16.065 -13.339,-26.903c-0.654,-3.237 -1.082,-6.589 -1.273,-10.005c-0.078,-1.376 -0.122,-2.759 -0.122,-4.128c0,-1.398 0.044,-2.781 0.122,-4.157c0.192,-3.415 0.626,-6.76 1.28,-9.997c2.17,-10.846 6.837,-20.387 13.34,-26.904l-6.439,-6.453c-6.51,6.525 -16.049,11.195 -26.87,13.37Zm12.016,13.826c-0.868,3.309 -1.522,6.745 -1.942,10.275c-0.398,3.266 -0.598,6.617 -0.605,10.033c0,3.408 0.207,6.753 0.612,10.025c0.406,3.531 1.06,6.968 1.928,10.276c0.79,3.045 1.756,5.982 2.909,8.777c-2.803,-1.154 -5.719,-2.124 -8.757,-2.916c-3.286,-0.87 -6.716,-1.526 -10.238,-1.946c-3.271,-0.4 -6.609,-0.606 -10.009,-0.606c-3.401,-0 -6.744,0.199 -10.01,0.606c-3.521,0.42 -6.95,1.077 -10.244,1.939c-3.037,0.806 -5.962,1.769 -8.758,2.916c1.146,-2.787 2.114,-5.725 2.918,-8.77c0.853,-3.308 1.508,-6.745 1.928,-10.276c0.398,-3.265 0.597,-6.616 0.597,-10.025c0.007,-3.416 -0.199,-6.76 -0.604,-10.033c-0.406,-3.53 -1.061,-6.966 -1.943,-10.275c-0.775,-3.044 -1.743,-5.968 -2.896,-8.777c2.803,1.155 5.714,2.132 8.744,2.916c3.301,0.885 6.723,1.519 10.251,1.946c3.273,0.4 6.609,0.607 10.01,0.607c3.4,-0 6.745,-0.2 10.009,-0.607c3.537,-0.42 6.959,-1.069 10.259,-1.939c3.024,-0.791 5.947,-1.768 8.743,-2.916c-1.145,2.802 -2.112,5.726 -2.902,8.77Zm-58.883,16.165c0.085,1.37 0.12,2.76 0.12,4.143c0,1.383 -0.043,2.767 -0.12,4.143c2.937,1.719 5.826,3.686 8.615,5.882c0.398,-3.265 0.597,-6.617 0.597,-10.025c0.007,-3.416 -0.199,-6.76 -0.604,-10.033c-2.782,2.203 -5.671,4.172 -8.608,5.89Zm32.781,27.753c-3.401,-0 -6.744,0.199 -10.01,0.606c2.185,2.802 4.163,5.682 5.87,8.635c1.373,-0.079 2.745,-0.114 4.14,-0.114c1.38,-0 2.768,0.035 4.134,0.121c1.707,-2.953 3.677,-5.84 5.875,-8.642c-3.271,-0.4 -6.609,-0.606 -10.009,-0.606Zm-0.007,-56.354c-1.38,0 -2.76,-0.042 -4.133,-0.121c-1.707,2.952 -3.671,5.847 -5.877,8.642c3.273,0.4 6.609,0.607 10.01,0.607c3.4,-0 6.744,-0.2 10.009,-0.607c-2.198,-2.788 -4.161,-5.683 -5.869,-8.635c-1.372,0.079 -2.746,0.114 -4.14,0.114Zm-32.774,28.601c0.085,1.37 0.12,2.76 0.12,4.143c0,1.383 -0.043,2.767 -0.12,4.143c2.937,1.719 5.826,3.686 8.615,5.882c0.398,-3.265 0.597,-6.617 0.597,-10.025c0.007,-3.416 -0.199,-6.76 -0.604,-10.033c-2.782,2.203 -5.671,4.172 -8.608,5.89Zm32.781,27.753c-3.401,-0 -6.744,0.199 -10.01,0.606c2.185,2.802 4.163,5.682 5.87,8.635c1.373,-0.079 2.745,-0.114 4.14,-0.114c1.38,-0 2.768,0.035 4.133,0.121c1.708,-2.953 3.678,-5.84 5.876,-8.642c-3.271,-0.4 -6.609,-0.606 -10.009,-0.606Zm-0.007,-56.354c-1.38,0 -2.76,-0.042 -4.133,-0.121c-1.707,2.952 -3.671,5.847 -5.877,8.642c3.273,0.4 6.609,0.607 10.01,0.607c3.4,-0 6.744,-0.2 10.009,-0.607c-2.198,-2.788 -4.161,-5.683 -5.869,-8.635c-1.372,0.079 -2.746,0.114 -4.14,0.114Zm0.007,56.354c-3.401,-0 -6.744,0.199 -10.01,0.606c2.185,2.802 4.163,5.682 5.87,8.635c1.373,-0.079 2.745,-0.114 4.14,-0.114c1.38,-0 2.768,0.035 4.133,0.121c1.708,-2.953 3.678,-5.84 5.876,-8.642c-3.271,-0.4 -6.609,-0.606 -10.009,-0.606Zm24.159,-33.643c-0.398,3.266 -0.598,6.617 -0.605,10.033c0,3.408 0.207,6.753 0.612,10.025c2.782,-2.203 5.67,-4.17 8.608,-5.89c-0.077,-1.375 -0.121,-2.759 -0.121,-4.128c0,-1.398 0.044,-2.78 0.121,-4.157c-2.938,-1.718 -5.826,-3.687 -8.615,-5.883Z" style="fill:#e9a65b;fill-rule:nonzero;"/></g><g id="Te"><g transform="matrix(0.474285,0,0,0.474285,60.6538,32.17)"><text x="103.748px" y="64.734px" style="font-family:'MontserratAlternates-ExtraBold', 'Montserrat Alternates';font-weight:800;font-size:5.482px;fill:#fff;">R</text><text x="107.804px" y="64.734px" style="font-family:'MontserratAlternates-Light', 'Montserrat Alternates';font-weight:300;font-size:5.482px;fill:#fff;">esourc<tspan x="125.84px " y="64.734px ">e</tspan>s</text></g><g transform="matrix(0.474285,0,0,0.474285,9.30665,-3.05434)"><text x="103.748px" y="64.734px" style="font-family:'MontserratAlternates-ExtraBold', 'Montserrat Alternates';font-weight:800;font-size:5.482px;fill:#fff;">T</text><text x="107.366px" y="64.734px" style="font-family:'MontserratAlternates-Light', 'Montserrat Alternates';font-weight:300;font-size:5.482px;fill:#fff;">eams</text></g><g transform="matrix(0.474285,0,0,0.474285,-47.3131,32.248)"><text x="103.748px" y="64.734px" style="font-family:'MontserratAlternates-ExtraBold', 'Montserrat Alternates';font-weight:800;font-size:5.482px;fill:#fff;">A</text><text x="108.1px" y="64.734px" style="font-family:'MontserratAlternates-Light', 'Montserrat Alternates';font-weight:300;font-size:5.482px;fill:#fff;">ctions</text></g><g transform="matrix(0.474285,0,0,0.474285,6.63552,39.9607)"><text x="101.918px" y="64.734px" style="font-family:'MontserratAlternates-ExtraBold', 'Montserrat Alternates';font-weight:800;font-size:5.482px;fill:#43505b;">C</text><text x="105.964px" y="64.734px" style="font-family:'MontserratAlternates-Medium', 'Montserrat Alternates';font-weight:500;font-size:5.482px;fill:#43505b;">ompliance &amp;</text><text x="106.548px" y="70.216px" style="font-family:'MontserratAlternates-Medium', 'Montserrat Alternates';font-weight:500;font-size:5.482px;fill:#43505b;">Alignment</text></g><g transform="matrix(0.474285,0,0,0.474285,8.25252,67.9165)"><text x="103.748px" y="64.734px" style="font-family:'MontserratAlternates-ExtraBold', 'Montserrat Alternates';font-weight:800;font-size:5.482px;fill:#fff;">E</text><text x="107.481px" y="64.734px" style="font-family:'MontserratAlternates-Light', 'Montserrat Alternates';font-weight:300;font-size:5.482px;fill:#fff;">x<tspan x="110.222px " y="64.734px ">e</tspan>cution</text></g><g transform="matrix(0.719276,0.694724,-0.694724,0.719276,49.5037,-44.2935)"><text x="128.766px" y="69.81px" style="font-family:'MontserratAlternates-Light', 'Montserrat Alternates';font-weight:300;font-size:2.6px;">Guardrails</text></g><g transform="matrix(0.719276,0.694724,-0.694724,0.719276,-19.6289,-15.0192)"><text x="57.976px" y="-1.096px" style="font-family:'MontserratAlternates-Light', 'Montserrat Alternates';font-weight:300;font-size:2.6px;">Ethics</text></g><g transform="matrix(0.719651,-0.694336,0.694336,0.719651,-18.8943,38.9858)"><text x="88.037px" y="73.593px" style="font-family:'MontserratAlternates-Light', 'Montserrat Alternates';font-weight:300;font-size:2.6px;">Security</text></g><g transform="matrix(0.719651,-0.694336,0.694336,0.719651,-90.7332,7.96561)"><text x="13.704px" y="147.044px" style="font-family:'MontserratAlternates-Light', 'Montserrat Alternates';font-weight:300;font-size:2.6px;">Regulations</text></g></g><path d="M106.464,61.027l-1.697,-1.697c-0.019,-0.02 -0.045,-0.03 -0.072,-0.03l-3.688,-0c-0.027,-0 -0.052,0.01 -0.072,0.03l-1.043,1.043c-0.163,-0.081 -0.361,-0.014 -0.442,0.149c-0.081,0.163 -0.014,0.36 0.149,0.441c0.164,0.081 0.361,0.015 0.442,-0.149c0.047,-0.094 0.046,-0.205 -0.003,-0.299l1.012,-1.011l3.603,-0l1.637,1.637l0,0.952l-0.247,0.247c-0.161,-0.087 -0.362,-0.027 -0.449,0.134c-0.088,0.161 -0.027,0.362 0.134,0.449c0.161,0.088 0.362,0.027 0.449,-0.134c0.051,-0.094 0.053,-0.206 0.007,-0.302l0.28,-0.28c0.019,-0.019 0.03,-0.045 0.03,-0.072l-0,-1.037c-0,-0.026 -0.011,-0.052 -0.03,-0.071l0,-0Zm-6.718,-0.234c-0.069,0 -0.125,-0.056 -0.125,-0.125c-0,-0.07 0.056,-0.126 0.125,-0.126c0.07,0 0.126,0.057 0.126,0.126c-0,0.069 -0.056,0.125 -0.126,0.125Zm6.142,1.963c-0.07,0 -0.126,-0.056 -0.126,-0.125c0,-0.07 0.057,-0.126 0.126,-0.126c0.069,0 0.125,0.057 0.125,0.126c0,0.069 -0.056,0.125 -0.125,0.125Z" style="fill:#fff;fill-rule:nonzero;"/><path d="M103.103,62.592c-0.163,-0.08 -0.361,-0.012 -0.441,0.151c-0.08,0.163 -0.012,0.36 0.151,0.44c0.163,0.081 0.361,0.013 0.441,-0.15c0.046,-0.095 0.044,-0.206 -0.005,-0.299l1.004,-1.004c0.019,-0.019 0.03,-0.045 0.03,-0.072l0,-0.604c0.173,-0.056 0.268,-0.242 0.211,-0.415c-0.056,-0.173 -0.242,-0.268 -0.415,-0.212c-0.173,0.057 -0.267,0.242 -0.211,0.416c0.032,0.1 0.111,0.178 0.211,0.211l0,0.562l-0.976,0.976Zm-0.145,0.421c-0.069,-0 -0.125,-0.056 -0.125,-0.126c-0,-0.069 0.056,-0.125 0.125,-0.125c0.069,0 0.125,0.056 0.125,0.125c0,0.07 -0.056,0.126 -0.125,0.126Zm1.098,-2.272c-0,-0.069 0.056,-0.125 0.125,-0.125c0.069,-0 0.125,0.056 0.125,0.125c0,0.069 -0.056,0.125 -0.125,0.125c-0.069,0 -0.125,-0.056 -0.125,-0.125Z" style="fill:#fff;fill-rule:nonzero;"/><path d="M101.727,63.076c-0.142,0.001 -0.269,0.093 -0.313,0.229l-1.192,0l-0.835,-0.835l0,-0.746c0.174,-0.055 0.27,-0.24 0.214,-0.414c-0.055,-0.173 -0.24,-0.269 -0.413,-0.214c-0.174,0.055 -0.27,0.241 -0.215,0.414c0.032,0.101 0.11,0.18 0.21,0.213l0,0.79c0,0.027 0.011,0.053 0.03,0.072l0.894,0.894c0.02,0.019 0.045,0.03 0.072,0.03l1.235,-0c0.058,0.172 0.244,0.266 0.416,0.209c0.173,-0.057 0.267,-0.243 0.209,-0.416c-0.044,-0.135 -0.17,-0.226 -0.312,-0.226l0,0Zm-2.44,-1.54c-0.069,0 -0.125,-0.056 -0.125,-0.125c-0,-0.07 0.056,-0.126 0.125,-0.126c0.069,0 0.125,0.056 0.126,0.125c-0,0.07 -0.057,0.126 -0.126,0.126Zm2.44,1.995c-0.069,0 -0.125,-0.056 -0.125,-0.125c-0,-0.069 0.056,-0.125 0.125,-0.126c0.069,0 0.125,0.057 0.126,0.126c-0,0.069 -0.057,0.125 -0.126,0.125Z" style="fill:#fff;fill-rule:nonzero;"/><path d="M103.215,63.969c0.138,-0 0.259,-0.087 0.305,-0.217l0.444,0c0.027,0 0.052,-0.011 0.072,-0.03l0.52,-0.52l0.309,-0c0.055,0.17 0.237,0.262 0.407,0.207c0.17,-0.055 0.263,-0.237 0.208,-0.407c-0.056,-0.17 -0.238,-0.263 -0.408,-0.208c-0.097,0.032 -0.173,0.108 -0.206,0.204l-0.352,0c-0.027,0 -0.053,0.011 -0.072,0.03l-0.521,0.52l-0.398,0c-0.054,-0.17 -0.235,-0.264 -0.406,-0.21c-0.17,0.054 -0.264,0.235 -0.21,0.406c0.042,0.134 0.167,0.225 0.308,0.225l-0,-0Zm1.957,-0.987c0.066,0 0.119,0.054 0.119,0.12c0,0.066 -0.053,0.119 -0.119,0.119c-0.066,0 -0.12,-0.053 -0.12,-0.119c0,-0.066 0.054,-0.12 0.12,-0.12Zm-1.957,0.544c0.066,0 0.119,0.054 0.119,0.12c0,0.066 -0.053,0.119 -0.119,0.119c-0.066,0 -0.119,-0.053 -0.119,-0.119c-0,-0.066 0.053,-0.12 0.119,-0.12Z" style="fill:#fff;fill-rule:nonzero;"/><path d="M99.98,61.723c-0.182,0 -0.33,0.147 -0.33,0.329c-0.001,0.182 0.146,0.329 0.328,0.33c0.053,-0 0.105,-0.013 0.152,-0.037l0.459,0.46c0.019,0.019 0.045,0.03 0.072,0.03l1.183,-0c0.028,-0 0.053,-0.011 0.072,-0.03l0.458,-0.458c0.163,0.081 0.361,0.015 0.442,-0.148c0.081,-0.163 0.015,-0.361 -0.149,-0.442c-0.163,-0.081 -0.361,-0.015 -0.442,0.148c-0.047,0.095 -0.046,0.206 0.003,0.299l-0.426,0.427l-1.098,-0l-0.43,-0.43c0.082,-0.162 0.017,-0.36 -0.145,-0.442c-0.046,-0.023 -0.097,-0.036 -0.149,-0.036l-0,0Zm-0,0.455c-0.07,0 -0.126,-0.056 -0.126,-0.125c0,-0.07 0.056,-0.126 0.125,-0.126c0.07,0 0.126,0.056 0.126,0.126c0,0.069 -0.056,0.125 -0.125,0.125Zm2.541,-0.251c0.069,0 0.125,0.056 0.125,0.126c0,0.069 -0.056,0.125 -0.125,0.125c-0.07,-0 -0.126,-0.056 -0.126,-0.125c0,-0.07 0.056,-0.126 0.126,-0.126Z" style="fill:#fff;fill-rule:nonzero;"/><path d="M105.362,60.711c-0.052,0 -0.103,0.013 -0.15,0.036l-0.757,-0.757c-0.019,-0.019 -0.045,-0.03 -0.072,-0.03l-1.652,0c-0.059,-0.172 -0.246,-0.263 -0.418,-0.204c-0.171,0.059 -0.263,0.246 -0.204,0.418c0.059,0.171 0.246,0.263 0.418,0.204c0.099,-0.034 0.176,-0.114 0.207,-0.214l1.606,-0l0.728,0.727c-0.083,0.162 -0.018,0.36 0.144,0.443c0.163,0.082 0.361,0.017 0.443,-0.145c0.082,-0.162 0.017,-0.36 -0.145,-0.442c-0.046,-0.024 -0.097,-0.036 -0.148,-0.036l-0,0Zm-2.942,-0.519c-0.07,0 -0.126,-0.056 -0.126,-0.125c0,-0.07 0.057,-0.126 0.126,-0.126c0.069,0 0.125,0.057 0.125,0.126c0,0.069 -0.056,0.125 -0.125,0.125Zm2.942,0.974c-0.07,0 -0.126,-0.056 -0.126,-0.125c0,-0.07 0.057,-0.126 0.126,-0.126c0.069,0 0.125,0.057 0.125,0.126c-0,0.069 -0.056,0.125 -0.125,0.125Z" style="fill:#fff;fill-rule:nonzero;"/><path d="M105.893,61.842c-0,-0.182 -0.148,-0.329 -0.329,-0.329c-0.143,-0 -0.27,0.092 -0.314,0.227l-0.408,-0c-0.027,-0 -0.053,0.011 -0.072,0.03l-0.821,0.82c-0.164,-0.077 -0.36,-0.007 -0.437,0.157c-0.078,0.164 -0.008,0.36 0.157,0.437c0.164,0.078 0.359,0.008 0.437,-0.156c0.045,-0.095 0.041,-0.206 -0.009,-0.298l0.787,-0.787l0.366,0c0.056,0.173 0.242,0.268 0.415,0.212c0.136,-0.044 0.228,-0.171 0.228,-0.313l-0,-0Zm-2.085,1.171c-0.069,-0 -0.125,-0.056 -0.126,-0.125c0,-0.07 0.057,-0.126 0.126,-0.126c0.069,-0 0.125,0.056 0.125,0.125c0.001,0.07 -0.056,0.126 -0.125,0.126Zm1.63,-1.171c-0,-0.07 0.056,-0.125 0.125,-0.125c0.07,-0 0.126,0.056 0.126,0.125c-0,0.069 -0.057,0.125 -0.126,0.125c-0.069,0 -0.125,-0.056 -0.125,-0.125Z" style="fill:#fff;fill-rule:nonzero;"/><path d="M103.57,65.248l0,-0.424c0,-0.027 -0.011,-0.053 -0.03,-0.072l-0.827,-0.827c0.083,-0.163 0.02,-0.362 -0.143,-0.446c-0.162,-0.083 -0.361,-0.02 -0.445,0.143c-0.083,0.162 -0.02,0.361 0.143,0.445c0.094,0.048 0.206,0.049 0.3,0.001l0.799,0.798l-0,0.38c-0.174,0.055 -0.271,0.24 -0.216,0.413c0.055,0.174 0.24,0.27 0.413,0.215c0.174,-0.054 0.271,-0.239 0.216,-0.413c-0.032,-0.1 -0.11,-0.18 -0.21,-0.213l0,-0Zm-1.15,-1.348c-0.07,-0 -0.126,-0.057 -0.126,-0.126c0,-0.069 0.056,-0.125 0.125,-0.125c0.07,-0 0.126,0.056 0.126,0.125c0,0.069 -0.056,0.126 -0.125,0.126Zm1.046,1.785c-0.07,0 -0.126,-0.056 -0.126,-0.125c0,-0.069 0.057,-0.125 0.126,-0.125c0.069,-0 0.125,0.056 0.125,0.125c0,0.069 -0.056,0.125 -0.125,0.125Z" style="fill:#fff;fill-rule:nonzero;"/><path d="M105.863,63.084c-0.182,0 -0.329,0.147 -0.329,0.329c-0,0.142 0.091,0.269 0.226,0.313l0,0.313l-0.394,0.394l-0.714,0c-0.028,0 -0.053,0.011 -0.072,0.03l-0.475,0.475c-0.019,0.019 -0.03,0.045 -0.03,0.072l0,0.847c-0.173,0.056 -0.269,0.241 -0.214,0.414c0.055,0.174 0.241,0.269 0.414,0.214c0.174,-0.055 0.269,-0.24 0.214,-0.413c-0.032,-0.101 -0.11,-0.18 -0.21,-0.213l-0.001,-0.807l0.416,-0.415l0.714,0c0.027,0 0.053,-0.011 0.072,-0.03l0.454,-0.454c0.019,-0.019 0.03,-0.045 0.03,-0.072l-0,-0.355c0.173,-0.055 0.268,-0.241 0.212,-0.414c-0.044,-0.136 -0.17,-0.228 -0.313,-0.228l-0,0Zm-1.563,3.087c0,0.07 -0.056,0.126 -0.125,0.126c-0.069,-0 -0.125,-0.056 -0.125,-0.126c-0,-0.069 0.056,-0.125 0.125,-0.125c0.069,0 0.125,0.056 0.125,0.125Zm1.563,-2.632c-0.07,-0 -0.126,-0.056 -0.126,-0.125c0,-0.07 0.057,-0.126 0.126,-0.126c0.069,0 0.125,0.056 0.125,0.126c0,0.069 -0.056,0.125 -0.125,0.125Z" style="fill:#fff;fill-rule:nonzero;"/><path d="M100.631,60.311c-0.182,-0.001 -0.329,0.147 -0.33,0.328c-0,0.182 0.147,0.33 0.329,0.33c0.052,0 0.104,-0.012 0.151,-0.036l0.452,0.452l0,0.317c-0.173,0.055 -0.27,0.24 -0.215,0.413c0.055,0.174 0.24,0.271 0.413,0.216c0.174,-0.055 0.27,-0.24 0.216,-0.413c-0.032,-0.101 -0.11,-0.18 -0.21,-0.214l0,-0.361c0,-0.027 -0.01,-0.053 -0.029,-0.072l-0.483,-0.483c0.082,-0.162 0.017,-0.359 -0.144,-0.442c-0.047,-0.023 -0.098,-0.036 -0.15,-0.035l0,-0Zm0,0.455c-0.069,-0 -0.125,-0.057 -0.125,-0.126c-0,-0.069 0.056,-0.125 0.125,-0.125c0.07,-0 0.125,0.056 0.125,0.125c0,0.069 -0.056,0.125 -0.125,0.126Zm0.702,1.125c0.069,-0 0.125,0.056 0.126,0.125c-0,0.069 -0.057,0.125 -0.126,0.126c-0.069,-0 -0.125,-0.057 -0.125,-0.126c-0,-0.069 0.055,-0.125 0.125,-0.125Z" style="fill:#fff;fill-rule:nonzero;"/><path d="M101.204,59.738c-0.181,-0.001 -0.329,0.146 -0.33,0.328c-0.001,0.182 0.147,0.33 0.328,0.33c0.051,0 0.1,-0.011 0.145,-0.033l0.89,0.891c0.019,0.019 0.045,0.029 0.072,0.029l0.568,0c0.056,0.173 0.242,0.268 0.415,0.212c0.173,-0.057 0.267,-0.243 0.211,-0.415c-0.056,-0.173 -0.242,-0.268 -0.415,-0.212c-0.1,0.033 -0.179,0.111 -0.211,0.212l-0.526,-0l-0.856,-0.858c0.085,-0.16 0.025,-0.359 -0.135,-0.445c-0.048,-0.026 -0.101,-0.039 -0.156,-0.039l0,-0Zm0,0.454c-0.069,0 -0.125,-0.056 -0.125,-0.125c0,-0.07 0.056,-0.126 0.125,-0.126c0.07,0 0.126,0.057 0.126,0.126c-0,0.069 -0.056,0.125 -0.126,0.125Zm1.986,0.864c0.07,-0 0.126,0.056 0.126,0.125c-0,0.069 -0.057,0.125 -0.126,0.125c-0.069,0 -0.125,-0.056 -0.125,-0.125c-0,-0.069 0.056,-0.125 0.125,-0.125Z" style="fill:#fff;fill-rule:nonzero;"/><path d="M66.81,61.615c0.14,-0.074 0.235,-0.218 0.235,-0.387c-0,-0.242 -0.198,-0.439 -0.44,-0.439c-0.19,-0 -0.352,0.123 -0.413,0.293l-1.368,-0c-0.024,-0.09 -0.065,-0.172 -0.126,-0.241l-0,-0.24c-0,-0.202 -0.079,-0.392 -0.222,-0.534l-0.114,-0.116c-0.057,-0.057 -0.151,-0.057 -0.208,0l-0.115,0.116c-0.14,0.142 -0.219,0.332 -0.219,0.534l-0,0.24c-0.062,0.069 -0.103,0.151 -0.127,0.241l-1.367,-0c-0.061,-0.17 -0.222,-0.293 -0.414,-0.293c-0.242,-0 -0.44,0.197 -0.44,0.439c0,0.169 0.096,0.313 0.235,0.387l-0.909,1.952c-0.035,0.044 -0.057,0.095 -0.057,0.154c-0,0.566 0.526,1.026 1.173,1.026c0.646,-0 1.172,-0.46 1.172,-1.026c0,-0.059 -0.021,-0.11 -0.057,-0.154l-0.91,-1.952c0.095,-0.051 0.17,-0.136 0.207,-0.24l1.367,-0c0.024,0.089 0.065,0.171 0.127,0.24l-0,4.451l-0.44,0c-0.405,0 -0.733,0.329 -0.733,0.734c-0,0.08 0.066,0.146 0.146,0.146l2.932,0c0.081,0 0.147,-0.066 0.147,-0.146c0,-0.405 -0.328,-0.734 -0.733,-0.734l-0.44,0l0,-4.451c0.062,-0.068 0.103,-0.151 0.126,-0.24l1.368,-0c0.037,0.104 0.112,0.189 0.207,0.24l-0.911,1.952c-0.035,0.044 -0.057,0.095 -0.057,0.154c0,0.566 0.527,1.026 1.173,1.026c0.647,-0 1.173,-0.46 1.173,-1.026c-0,-0.059 -0.022,-0.11 -0.057,-0.154l-0.911,-1.952Zm-0.205,-0.533c0.081,-0 0.147,0.066 0.147,0.146c-0,0.081 -0.066,0.147 -0.147,0.147c-0.081,-0 -0.147,-0.066 -0.147,-0.147c0,-0.08 0.066,-0.146 0.147,-0.146Zm-4.691,-0c0.08,-0 0.146,0.066 0.146,0.146c0,0.081 -0.066,0.147 -0.146,0.147c-0.081,-0 -0.147,-0.066 -0.147,-0.147c-0,-0.08 0.066,-0.146 0.147,-0.146Zm-0,2.785c-0.461,0 -0.757,-0.085 -0.855,-0.146c0.098,-0.062 0.394,-0.147 0.855,-0.147c0.46,0 0.756,0.085 0.854,0.147c-0.098,0.061 -0.394,0.146 -0.854,0.146Zm-0,-0.586c-0.065,-0 -0.399,0.004 -0.694,0.073l0.694,-1.486l0.693,1.486c-0.295,-0.069 -0.629,-0.073 -0.693,-0.073Zm4.691,-1.413l0.694,1.486c-0.295,-0.069 -0.629,-0.073 -0.694,-0.073c-0.064,-0 -0.399,0.004 -0.693,0.073l0.693,-1.486Zm0,1.999c-0.46,0 -0.756,-0.085 -0.855,-0.146c0.099,-0.062 0.395,-0.147 0.855,-0.147c0.46,0 0.757,0.085 0.855,0.147c-0.098,0.061 -0.395,0.146 -0.855,0.146Z" style="fill:#e0a967;fill-rule:nonzero;stroke:#fff;stroke-width:0.01px;"/><path d="M19.852,59.069l1.713,-0c0.092,-0 0.177,0.037 0.237,0.098c0.061,0.061 0.099,0.145 0.099,0.238l0,0.962c0,0.093 -0.038,0.177 -0.099,0.238c-0.06,0.061 -0.145,0.098 -0.237,0.098l-1.713,0c-0.092,0 -0.177,-0.037 -0.238,-0.098c-0.06,-0.061 -0.098,-0.145 -0.098,-0.238l-0,-0.962c-0,-0.093 0.038,-0.177 0.098,-0.238c0.061,-0.061 0.146,-0.099 0.238,-0.099l0,0.001Zm2.761,3.731c0.05,-0.044 0.126,-0.039 0.169,0.011c0.044,0.049 0.039,0.125 -0.011,0.169l-0.145,0.127l2.657,-0c0.04,-0 0.076,-0.016 0.102,-0.042c0.025,-0.026 0.041,-0.062 0.041,-0.101l0,-1.145c0,-0.039 -0.016,-0.075 -0.041,-0.101c-0.026,-0.026 -0.062,-0.042 -0.102,-0.042l-0.263,0c-0.066,0 -0.12,-0.054 -0.12,-0.12c-0,-0.066 0.054,-0.12 0.12,-0.12l0.263,0c0.106,0 0.201,0.043 0.27,0.113c0.07,0.069 0.113,0.165 0.113,0.27l0,1.145c0,0.105 -0.043,0.201 -0.112,0.27c-0.07,0.07 -0.166,0.113 -0.271,0.113l-2.657,-0l0.145,0.127c0.049,0.044 0.054,0.119 0.011,0.169c-0.043,0.05 -0.119,0.055 -0.169,0.011l-0.384,-0.337l-0.012,-0.012c-0.043,-0.049 -0.038,-0.125 0.012,-0.168l0.384,-0.338l0,0.001Zm-1.255,1.918c-0.049,-0.044 -0.054,-0.119 -0.011,-0.169c0.044,-0.05 0.119,-0.055 0.169,-0.011l0.385,0.337c0.049,0.044 0.054,0.119 0.011,0.169l-0.012,0.012l-0.384,0.337c-0.05,0.043 -0.125,0.038 -0.169,-0.011c-0.043,-0.05 -0.038,-0.126 0.011,-0.169l0.146,-0.127l-2.658,-0c-0.105,-0 -0.201,-0.043 -0.271,-0.113l-0.007,-0.008c-0.065,-0.069 -0.105,-0.161 -0.105,-0.263l-0,-1.144c-0,-0.105 0.043,-0.201 0.112,-0.271c0.07,-0.069 0.166,-0.112 0.271,-0.112l0.264,-0c0.066,-0 0.12,0.054 0.12,0.12c-0,0.066 -0.054,0.12 -0.12,0.12l-0.264,-0c-0.039,-0 -0.075,0.016 -0.101,0.042c-0.026,0.026 -0.042,0.062 -0.042,0.101l0,1.144c0,0.038 0.014,0.072 0.037,0.097l0.005,0.004c0.026,0.026 0.062,0.043 0.101,0.043l2.657,-0l-0.145,-0.128l0,-0Zm0,-3.409c-0.049,-0.043 -0.054,-0.119 -0.011,-0.168c0.044,-0.05 0.119,-0.055 0.169,-0.012l0.385,0.338c0.049,0.043 0.054,0.119 0.011,0.169l-0.012,0.011l-0.384,0.338c-0.05,0.043 -0.125,0.038 -0.169,-0.011c-0.043,-0.05 -0.038,-0.126 0.011,-0.169l0.146,-0.128l-2.658,0c-0.105,0 -0.201,-0.043 -0.271,-0.112l-0.007,-0.008c-0.065,-0.069 -0.105,-0.162 -0.105,-0.263l-0,-1.144c-0,-0.105 0.043,-0.201 0.112,-0.271c0.07,-0.069 0.166,-0.113 0.271,-0.113l0.264,0c0.066,0 0.12,0.054 0.12,0.121c-0,0.066 -0.054,0.12 -0.12,0.12l-0.264,-0c-0.039,-0 -0.075,0.016 -0.101,0.042c-0.026,0.025 -0.042,0.061 -0.042,0.101l0,1.144c0,0.037 0.014,0.071 0.037,0.096l0.005,0.005c0.026,0.026 0.062,0.042 0.101,0.042l2.657,0l-0.145,-0.127l0,-0.001Zm1.207,2.771l1.712,0c0.093,0 0.177,0.038 0.238,0.099l0.008,0.008c0.056,0.061 0.091,0.142 0.091,0.23l-0,0.962c-0,0.092 -0.038,0.176 -0.099,0.237c-0.062,0.062 -0.146,0.099 -0.238,0.099l-1.712,0c-0.093,0 -0.177,-0.038 -0.238,-0.099c-0.061,-0.061 -0.099,-0.145 -0.099,-0.238l-0,-0.961c-0,-0.093 0.038,-0.177 0.099,-0.238c0.061,-0.061 0.145,-0.099 0.238,-0.099l-0,0Zm1.712,0.241l-1.712,-0c-0.027,-0 -0.051,0.011 -0.069,0.028c-0.017,0.018 -0.028,0.042 -0.028,0.068l0,0.962c0,0.026 0.011,0.05 0.028,0.068c0.018,0.017 0.042,0.028 0.069,0.028l1.712,0c0.027,0 0.051,-0.01 0.068,-0.028c0.018,-0.017 0.029,-0.041 0.029,-0.068l-0,-0.961c-0,-0.025 -0.009,-0.047 -0.024,-0.064l-0.005,-0.005c-0.017,-0.017 -0.041,-0.028 -0.068,-0.028l0,-0Zm-4.425,-1.911l1.713,-0c0.092,-0 0.177,0.038 0.238,0.099c0.061,0.061 0.099,0.145 0.099,0.238l-0,0.961c-0,0.093 -0.038,0.177 -0.099,0.238c-0.061,0.061 -0.145,0.099 -0.238,0.099l-1.712,-0c-0.093,-0 -0.177,-0.038 -0.238,-0.099c-0.061,-0.061 -0.099,-0.145 -0.099,-0.238l-0,-0.961c-0,-0.093 0.038,-0.177 0.099,-0.238c0.061,-0.061 0.145,-0.099 0.238,-0.099l-0.001,-0Zm1.713,0.24l-1.713,0c-0.026,0 -0.05,0.011 -0.068,0.029c-0.018,0.017 -0.028,0.041 -0.028,0.068l-0,0.961c-0,0.026 0.011,0.051 0.028,0.068c0.018,0.018 0.042,0.029 0.068,0.029l1.713,-0c0.026,-0 0.05,-0.011 0.068,-0.029c0.017,-0.017 0.028,-0.041 0.028,-0.068l0,-0.961c0,-0.027 -0.011,-0.051 -0.028,-0.068c-0.018,-0.018 -0.042,-0.029 -0.068,-0.029l-0,0Zm1,-1.911l1.712,0c0.092,0 0.176,0.038 0.237,0.099c0.062,0.062 0.1,0.146 0.1,0.238l-0,0.962c-0,0.092 -0.038,0.177 -0.099,0.238c-0.061,0.061 -0.145,0.098 -0.238,0.098l-1.713,0c-0.092,0 -0.177,-0.037 -0.237,-0.098c-0.061,-0.061 -0.099,-0.146 -0.099,-0.238l-0,-0.962c-0,-0.092 0.038,-0.177 0.099,-0.238c0.061,-0.061 0.145,-0.099 0.238,-0.099Zm1.712,0.241l-1.712,-0c-0.027,-0 -0.051,0.011 -0.068,0.028c-0.018,0.018 -0.029,0.042 -0.029,0.068l0,0.962c0,0.026 0.011,0.05 0.029,0.068c0.017,0.017 0.041,0.028 0.067,0.028l1.713,0c0.026,0 0.05,-0.011 0.068,-0.028c0.018,-0.018 0.028,-0.042 0.028,-0.068l0,-0.962c0,-0.026 -0.01,-0.051 -0.027,-0.068c-0.018,-0.018 -0.042,-0.028 -0.069,-0.028l0,-0Zm-2.712,-1.671l-1.713,0c-0.026,0 -0.05,0.011 -0.068,0.029c-0.017,0.017 -0.028,0.041 -0.028,0.068l-0,0.961c-0,0.027 0.011,0.051 0.028,0.069c0.018,0.017 0.042,0.028 0.068,0.028l1.713,0c0.026,0 0.05,-0.011 0.068,-0.028c0.017,-0.018 0.028,-0.042 0.028,-0.068l0,-0.962c0,-0.026 -0.011,-0.051 -0.028,-0.068c-0.018,-0.018 -0.042,-0.029 -0.068,-0.029l-0,0Z" style="fill:#fff;fill-rule:nonzero;"/><g><clipPath id="_clip1"><rect x="59.132" y="16.177" width="7.557" height="5.34"/></clipPath><g clip-path="url(#_clip1)"><path d="M62.88,18.038c-0.421,-0 -0.749,-0.422 -0.749,-0.93c-0,-0.508 0.328,-0.93 0.749,-0.93c0.422,0 0.75,0.422 0.75,0.93c0,0.508 -0.328,0.93 -0.75,0.93Zm0,-0.24c0.275,-0 0.51,-0.303 0.51,-0.69c0,-0.387 -0.235,-0.69 -0.51,-0.69c-0.274,0 -0.509,0.303 -0.509,0.69c-0,0.387 0.235,0.69 0.509,0.69Zm0.208,-0.061c0.18,-0.11 0.302,-0.353 0.302,-0.629c0,-0.387 -0.235,-0.69 -0.51,-0.69c-0.274,0 -0.509,0.303 -0.509,0.69c-0,0.268 0.115,0.506 0.288,0.62l0.213,0.141l0.216,-0.132Zm-0.467,0.208c-0.277,0.068 -0.467,0.25 -0.488,0.453l1.435,-0c-0.02,-0.193 -0.193,-0.368 -0.451,-0.443l-0.245,-0.071l-0.251,0.061Zm-0.49,-0.837c-0,-0.508 0.328,-0.93 0.749,-0.93c0.422,0 0.75,0.422 0.75,0.93c0,0.27 -0.093,0.521 -0.25,0.695c0.261,0.136 0.43,0.369 0.43,0.633c0,0.034 -0.003,0.068 -0.008,0.101l-0.017,0.1l-1.869,0l-0.017,-0.1c-0.005,-0.033 -0.008,-0.067 -0.008,-0.101c-0,-0.279 0.188,-0.522 0.472,-0.654c-0.146,-0.173 -0.232,-0.415 -0.232,-0.674l-0,0Zm-2.01,3.809c-0.421,-0 -0.749,-0.422 -0.749,-0.93c-0,-0.508 0.328,-0.93 0.749,-0.93c0.422,0 0.75,0.422 0.75,0.93c0,0.508 -0.328,0.93 -0.75,0.93Zm0,-0.24c0.275,-0 0.51,-0.303 0.51,-0.69c0,-0.387 -0.235,-0.69 -0.51,-0.69c-0.274,0 -0.509,0.303 -0.509,0.69c-0,0.387 0.235,0.69 0.509,0.69Zm0.208,-0.061c0.18,-0.11 0.302,-0.353 0.302,-0.629c0,-0.387 -0.235,-0.69 -0.51,-0.69c-0.274,0 -0.509,0.303 -0.509,0.69c-0,0.268 0.115,0.506 0.288,0.62l0.213,0.141l0.216,-0.132Zm-0.467,0.208c-0.277,0.068 -0.467,0.25 -0.488,0.453l1.435,-0c-0.02,-0.193 -0.193,-0.368 -0.451,-0.443l-0.245,-0.071l-0.251,0.061Zm-0.49,-0.837c-0,-0.508 0.328,-0.93 0.749,-0.93c0.422,0 0.75,0.422 0.75,0.93c0,0.27 -0.093,0.521 -0.25,0.695c0.261,0.136 0.43,0.369 0.43,0.633c0,0.034 -0.003,0.068 -0.008,0.101l-0.017,0.1l-1.869,0l-0.017,-0.1c-0.005,-0.033 -0.008,-0.067 -0.008,-0.101c-0,-0.279 0.188,-0.522 0.472,-0.654c-0.146,-0.173 -0.232,-0.415 -0.232,-0.674l-0,-0Zm6.387,0.93c-0.421,-0 -0.749,-0.422 -0.749,-0.93c-0,-0.508 0.328,-0.93 0.749,-0.93c0.422,0 0.75,0.422 0.75,0.93c0,0.508 -0.328,0.93 -0.75,0.93Zm0,-0.24c0.274,-0 0.51,-0.303 0.51,-0.69c0,-0.387 -0.236,-0.69 -0.51,-0.69c-0.274,0 -0.509,0.303 -0.509,0.69c-0,0.387 0.235,0.69 0.509,0.69Zm0.208,-0.061c0.18,-0.11 0.302,-0.353 0.302,-0.629c0,-0.387 -0.236,-0.69 -0.51,-0.69c-0.274,0 -0.509,0.303 -0.509,0.69c-0,0.268 0.115,0.506 0.288,0.62l0.213,0.141l0.216,-0.132Zm-0.467,0.208c-0.277,0.068 -0.467,0.25 -0.488,0.453l1.435,-0c-0.02,-0.193 -0.193,-0.368 -0.451,-0.443l-0.245,-0.071l-0.251,0.061Zm-0.49,-0.837c-0,-0.508 0.328,-0.93 0.749,-0.93c0.422,0 0.75,0.422 0.75,0.93c0,0.27 -0.093,0.521 -0.25,0.695c0.261,0.136 0.43,0.369 0.43,0.633c0,0.034 -0.003,0.068 -0.008,0.101l-0.017,0.1l-1.869,0l-0.017,-0.1c-0.005,-0.033 -0.008,-0.067 -0.008,-0.101c-0,-0.279 0.188,-0.522 0.472,-0.654c-0.146,-0.173 -0.232,-0.415 -0.232,-0.674l-0,-0Zm-0.503,-3.126l0.585,-0c0.497,-0 0.9,0.402 0.9,0.899l-0,0.877l-0.24,0l-0,-0.877c-0,-0.364 -0.296,-0.659 -0.66,-0.659l-0.585,-0l0,0.434l-0.659,-0.479l0.659,-0.48l0,0.285Zm-4.228,1.304l0.36,0l-0.48,0.66l-0.48,-0.66l0.36,0l0,-0.45c0,-0.496 0.403,-0.899 0.9,-0.899l0.779,-0l0,0.24l-0.779,-0c-0.365,-0 -0.66,0.295 -0.66,0.659l-0,0.45Zm3.449,2.009l-0,-0.359l0.659,0.479l-0.659,0.48l-0,-0.36l-1.965,0l0,-0.24l1.965,0Z" style="fill:#fff;fill-rule:nonzero;"/></g></g><path d="M63.144,107.079c-0.388,0 -0.76,-0.154 -1.034,-0.428c-0.274,-0.275 -0.429,-0.647 -0.429,-1.035c0,-0.388 0.155,-0.76 0.429,-1.034c0.274,-0.275 0.647,-0.429 1.035,-0.429c0.388,0 0.76,0.154 1.034,0.429c0.274,0.274 0.429,0.646 0.429,1.034c-0.001,0.388 -0.155,0.76 -0.429,1.035c-0.275,0.274 -0.647,0.428 -1.035,0.428l0,0Zm1.122,-2.659l0.171,0c0.032,0.001 0.061,-0.016 0.077,-0.044l0.432,-0.748c0.141,0.047 0.296,0.021 0.413,-0.069c0.118,-0.091 0.183,-0.234 0.173,-0.382c-0.01,-0.148 -0.093,-0.282 -0.221,-0.356c-0.128,-0.075 -0.286,-0.08 -0.419,-0.015c-0.133,0.065 -0.225,0.192 -0.245,0.34c-0.021,0.147 0.034,0.294 0.145,0.393l-0.406,0.704l-0.346,-0c0.08,0.053 0.156,0.112 0.226,0.177l0,0Zm0.911,0.492l0.823,-0.797c-0.079,-0.125 -0.092,-0.281 -0.032,-0.417c0.059,-0.136 0.182,-0.233 0.328,-0.259c0.146,-0.026 0.295,0.022 0.398,0.128c0.103,0.107 0.146,0.257 0.115,0.402c-0.031,0.145 -0.132,0.265 -0.27,0.32c-0.137,0.054 -0.293,0.037 -0.415,-0.046l-0.849,0.822c-0.016,0.016 -0.038,0.025 -0.061,0.025l-0.516,-0c-0.021,-0.061 -0.045,-0.12 -0.073,-0.178l0.552,-0Zm1.196,0.793c0.029,0.145 0.129,0.266 0.266,0.322c0.137,0.056 0.293,0.041 0.416,-0.042c0.123,-0.082 0.197,-0.221 0.197,-0.369c-0,-0.148 -0.074,-0.286 -0.197,-0.368c-0.123,-0.083 -0.279,-0.099 -0.416,-0.042c-0.137,0.056 -0.237,0.176 -0.266,0.321l-1.59,0c0.006,0.06 0.006,0.119 -0,0.178l1.59,0Zm-1.74,0.616l-0,-0c0.027,-0.057 0.049,-0.117 0.065,-0.178l0.516,-0c0.023,0 0.045,0.009 0.061,0.025l0.849,0.822c0.122,-0.084 0.279,-0.101 0.417,-0.046c0.137,0.055 0.239,0.175 0.27,0.32c0.031,0.146 -0.012,0.297 -0.115,0.403c-0.104,0.107 -0.253,0.155 -0.399,0.129c-0.147,-0.026 -0.27,-0.124 -0.33,-0.26c-0.059,-0.136 -0.047,-0.293 0.033,-0.418l-0.823,-0.797l-0.544,-0Zm0.313,1.284l-0.432,-0.748c-0.016,-0.028 -0.045,-0.045 -0.077,-0.045l-0.187,0c-0.063,0.059 -0.133,0.119 -0.21,0.178l0.346,0l0.406,0.704c-0.109,0.098 -0.162,0.243 -0.142,0.388c0.02,0.145 0.111,0.27 0.242,0.334c0.132,0.064 0.287,0.059 0.413,-0.015c0.127,-0.073 0.208,-0.205 0.218,-0.351c0.01,-0.146 -0.054,-0.287 -0.17,-0.376c-0.116,-0.09 -0.269,-0.115 -0.407,-0.069l-0,-0Zm-1.802,0.009c-0.53,0 -1.038,-0.21 -1.413,-0.585c-0.374,-0.375 -0.585,-0.883 -0.585,-1.413c0,-0.53 0.211,-1.038 0.585,-1.412c0.375,-0.375 0.883,-0.586 1.413,-0.586c0.024,0.001 0.047,-0.009 0.063,-0.026c0.017,-0.016 0.026,-0.039 0.026,-0.063l0,-1.303c0,-0.024 -0.009,-0.046 -0.026,-0.063c-0.016,-0.017 -0.039,-0.026 -0.063,-0.026l-0.487,0c-0.053,0 -0.105,0.019 -0.146,0.053c-0.041,0.035 -0.068,0.083 -0.077,0.135l-0.1,0.578c-0.185,0.056 -0.364,0.13 -0.534,0.223l-0.481,-0.339c-0.043,-0.031 -0.096,-0.046 -0.15,-0.041c-0.053,0.004 -0.103,0.028 -0.14,0.065l-0.69,0.69c-0.038,0.038 -0.061,0.087 -0.065,0.141c-0.005,0.053 0.01,0.106 0.041,0.15l0.344,0.488l-0,-0c-0.089,0.167 -0.16,0.342 -0.213,0.523l-0.593,0.103c-0.053,0.009 -0.1,0.036 -0.135,0.077c-0.034,0.041 -0.053,0.092 -0.053,0.146l0,0.975c-0,0.053 0.019,0.105 0.053,0.146c0.035,0.041 0.082,0.068 0.135,0.077l0.605,0.104c0.055,0.175 0.126,0.344 0.214,0.505l-0.357,0.505c-0.031,0.044 -0.046,0.097 -0.041,0.15c0.004,0.054 0.027,0.104 0.065,0.141l0.69,0.69c0.038,0.037 0.087,0.061 0.141,0.065c0.053,0.005 0.106,-0.01 0.15,-0.041l0.513,-0.362c0.158,0.083 0.323,0.152 0.494,0.203l0.107,0.621l-0,-0c0.009,0.052 0.036,0.1 0.077,0.134c0.041,0.035 0.093,0.054 0.146,0.054l0.487,-0c0.024,-0 0.046,-0.01 0.063,-0.026c0.017,-0.017 0.026,-0.04 0.026,-0.063l0,-1.304c0,-0.023 -0.009,-0.046 -0.026,-0.063c-0.016,-0.017 -0.039,-0.026 -0.063,-0.026l0,0Z" style="fill:#fff;"/></g></svg>