<?xml version="1.0" encoding="UTF-8" standalone="no"?><!DOCTYPE svg PUBLIC "-//W3C//DTD SVG 1.1//EN" "http://www.w3.org/Graphics/SVG/1.1/DTD/svg11.dtd"><svg width="100%" height="100%" viewBox="0 0 125 125" version="1.1" xmlns="http://www.w3.org/2000/svg" xmlns:xlink="http://www.w3.org/1999/xlink" xml:space="preserve" xmlns:serif="http://www.serif.com/" style="fill-rule:evenodd;clip-rule:evenodd;stroke-linejoin:round;stroke-miterlimit:2;"><g id="Components"><g id="_4d242af2-080f-4c9d-85f3-bf09a0d3ece3_1"><path d="M66.2,94.682c-1.358,-0.085 -2.737,-0.12 -4.109,-0.12c-1.386,-0 -2.75,0.035 -4.115,0.113c-1.697,-2.928 -3.663,-5.784 -5.834,-8.563c-3.5,0.417 -6.908,1.067 -10.182,1.923c2.256,2.538 4.299,5.19 6.123,7.905c6.06,9.129 9.483,19.099 9.483,28.249l9.037,0c-0.001,-9.15 3.436,-19.12 9.496,-28.249c1.817,-2.722 3.861,-5.374 6.117,-7.898l-10.176,-1.93c-2.185,2.778 -4.143,5.642 -5.84,8.57Z" style="fill:#43505b;fill-rule:nonzero;"/><path d="M66.61,0l-9.037,0c-0,9.15 -3.437,19.12 -9.497,28.249c-1.817,2.722 -3.861,5.374 -6.13,7.898c3.281,0.877 6.682,1.506 10.189,1.931c2.192,-2.772 4.144,-5.643 5.841,-8.57c1.365,0.077 2.736,0.12 4.108,0.12c1.386,-0 2.751,-0.036 4.116,-0.113c1.697,2.927 3.648,5.798 5.833,8.563c3.514,-0.417 6.916,-1.061 10.197,-1.924c-2.27,-2.538 -4.314,-5.19 -6.138,-7.905c-6.06,-9.129 -9.482,-19.099 -9.482,-28.249l-0,0Z" style="fill:#51817c;fill-rule:nonzero;"/><path d="M124.175,57.566c-9.136,-0 -19.106,-3.423 -28.235,-9.497c-2.722,-1.803 -5.374,-3.846 -7.905,-6.109c-0.863,3.281 -1.513,6.689 -1.931,10.189c2.772,2.178 5.643,4.13 8.563,5.834c-0.077,1.365 -0.12,2.736 -0.12,4.122c0,1.358 0.043,2.73 0.12,4.094c-2.92,1.705 -5.791,3.656 -8.555,5.841c0.403,3.501 1.053,6.909 1.916,10.19c2.531,-2.263 5.183,-4.307 7.905,-6.11c9.136,-6.067 19.106,-9.503 28.242,-9.503l0,-9.051l0,-0Z" style="fill:#51817c;fill-rule:nonzero;"/><path d="M29.628,62.098c-0,-1.371 -0.035,-2.75 -0.12,-4.108c2.92,-1.704 5.791,-3.656 8.556,-5.841c-0.403,-3.5 -1.054,-6.908 -1.931,-10.189c-2.524,2.255 -5.176,4.313 -7.891,6.109c-9.136,6.067 -19.106,9.504 -28.242,9.504l0,9.051c9.136,-0 19.106,3.422 28.235,9.496c2.729,1.796 5.381,3.854 7.919,6.109c0.849,-3.281 1.5,-6.689 1.917,-10.189c-2.772,-2.178 -5.643,-4.129 -8.563,-5.834c0.078,-1.364 0.12,-2.736 0.12,-4.108l-0,0Z" style="fill:#51817c;fill-rule:nonzero;"/><path d="M86.104,52.149c-0.396,3.239 -0.594,6.562 -0.601,9.949c0,3.38 0.205,6.697 0.608,9.942c2.765,-2.185 5.636,-4.136 8.556,-5.841c-0.077,-1.364 -0.12,-2.736 -0.12,-4.094c0,-1.386 0.043,-2.757 0.12,-4.122c-2.92,-1.704 -5.791,-3.656 -8.563,-5.834Zm-24.013,33.362c-3.38,-0 -6.703,0.198 -9.949,0.6c2.171,2.779 4.137,5.636 5.834,8.564c1.365,-0.078 2.729,-0.113 4.115,-0.113c1.372,-0 2.751,0.035 4.108,0.12c1.698,-2.928 3.656,-5.791 5.841,-8.57c-3.252,-0.396 -6.569,-0.601 -9.949,-0.601l0,-0Zm-32.583,-27.521c0.085,1.358 0.12,2.737 0.12,4.108c-0,1.372 -0.043,2.744 -0.12,4.109c2.92,1.704 5.791,3.655 8.563,5.833c0.396,-3.238 0.594,-6.562 0.594,-9.942c0.007,-3.387 -0.198,-6.703 -0.601,-9.949c-2.765,2.185 -5.636,4.137 -8.556,5.841l-0,0Zm56.596,-5.841c-0.396,3.239 -0.594,6.562 -0.601,9.949c0,3.38 0.205,6.697 0.608,9.942c2.765,-2.185 5.636,-4.136 8.556,-5.841c-0.077,-1.364 -0.12,-2.736 -0.12,-4.094c0,-1.386 0.043,-2.757 0.12,-4.122c-2.92,-1.704 -5.791,-3.656 -8.563,-5.834Zm-24.013,33.362c-3.38,-0 -6.703,0.198 -9.949,0.6c2.171,2.779 4.137,5.636 5.834,8.564c1.365,-0.078 2.729,-0.113 4.115,-0.113c1.372,-0 2.751,0.035 4.108,0.12c1.698,-2.928 3.656,-5.791 5.841,-8.57c-3.252,-0.396 -6.569,-0.601 -9.949,-0.601l0,-0Zm-0.007,-55.883c-1.372,0 -2.743,-0.042 -4.108,-0.12c-1.697,2.927 -3.649,5.798 -5.841,8.57c3.253,0.396 6.569,0.601 9.949,0.601c3.38,-0 6.703,-0.198 9.949,-0.601c-2.185,-2.765 -4.136,-5.636 -5.834,-8.563c-1.364,0.078 -2.729,0.113 -4.115,0.113Zm0.007,55.883c-3.38,-0 -6.703,0.198 -9.949,0.6c2.171,2.779 4.137,5.636 5.834,8.564c1.365,-0.078 2.729,-0.113 4.115,-0.113c1.372,-0 2.751,0.035 4.108,0.12c1.698,-2.928 3.656,-5.791 5.841,-8.57c-3.252,-0.396 -6.569,-0.601 -9.949,-0.601l0,-0Zm-32.583,-27.521c0.085,1.358 0.12,2.737 0.12,4.108c-0,1.372 -0.043,2.744 -0.12,4.109c2.92,1.704 5.791,3.655 8.563,5.833c0.396,-3.238 0.594,-6.562 0.594,-9.942c0.007,-3.387 -0.198,-6.703 -0.601,-9.949c-2.765,2.185 -5.636,4.137 -8.556,5.841l-0,0Zm32.576,-28.362c-1.372,0 -2.743,-0.042 -4.108,-0.12c-1.697,2.927 -3.649,5.798 -5.841,8.57c3.253,0.396 6.569,0.601 9.949,0.601c3.38,-0 6.703,-0.198 9.949,-0.601c-2.185,-2.765 -4.136,-5.636 -5.834,-8.563c-1.364,0.078 -2.729,0.113 -4.115,0.113Zm-9.942,56.484c2.171,2.779 4.137,5.635 5.834,8.563c1.364,-0.078 2.729,-0.113 4.115,-0.113c1.372,-0 2.751,0.035 4.108,0.12c1.698,-2.928 3.656,-5.791 5.841,-8.57c-3.253,-0.396 -6.569,-0.601 -9.949,-0.601c-3.38,-0 -6.703,0.198 -9.949,0.601l0,-0Zm-13.477,-24.014c0.007,-3.387 -0.198,-6.703 -0.601,-9.949c-2.765,2.185 -5.636,4.137 -8.556,5.841c0.085,1.358 0.12,2.736 0.12,4.108c-0,1.372 -0.043,2.744 -0.12,4.109c2.92,1.704 5.791,3.655 8.563,5.833c0.396,-3.238 0.594,-6.562 0.594,-9.942l-0,0Zm37.427,-33.849c-3.196,0.651 -6.512,1.068 -9.892,1.266c-1.365,0.077 -2.73,0.113 -4.116,0.113c-1.372,-0 -2.743,-0.042 -4.108,-0.12c-3.38,-0.184 -6.704,-0.608 -9.9,-1.259c-10.748,-2.164 -20.223,-6.788 -26.693,-13.258l-6.399,6.399c6.456,6.456 11.094,15.931 13.258,26.679c0.65,3.21 1.075,6.534 1.266,9.921c0.085,1.358 0.12,2.736 0.12,4.108c-0,1.372 -0.043,2.744 -0.12,4.109c-0.191,3.386 -0.623,6.703 -1.273,9.913c-2.157,10.755 -6.788,20.223 -13.258,26.679l6.399,6.4c6.47,-6.471 15.952,-11.102 26.707,-13.259c3.196,-0.65 6.513,-1.068 9.893,-1.266c1.364,-0.077 2.729,-0.113 4.115,-0.113c1.372,0 2.751,0.036 4.108,0.12c3.38,0.184 6.704,0.609 9.9,1.259c10.748,2.164 20.223,6.788 26.693,13.258l6.399,-6.399c-6.462,-6.463 -11.094,-15.931 -13.258,-26.679c-0.65,-3.21 -1.075,-6.534 -1.265,-9.921c-0.078,-1.365 -0.121,-2.736 -0.121,-4.094c0,-1.386 0.043,-2.758 0.121,-4.122c0.191,-3.387 0.622,-6.704 1.272,-9.914c2.157,-10.755 6.796,-20.216 13.259,-26.679l-6.4,-6.399c-6.47,6.47 -15.952,11.101 -26.707,13.258l-0,0Zm11.943,13.711c-0.863,3.281 -1.513,6.689 -1.93,10.189c-0.396,3.239 -0.594,6.562 -0.601,9.949c-0,3.38 0.205,6.697 0.608,9.942c0.403,3.501 1.053,6.909 1.916,10.19c0.785,3.019 1.746,5.932 2.892,8.704c-2.786,-1.145 -5.685,-2.107 -8.704,-2.892c-3.267,-0.863 -6.676,-1.513 -10.176,-1.93c-3.252,-0.396 -6.569,-0.601 -9.949,-0.601c-3.38,-0 -6.703,0.198 -9.949,0.601c-3.5,0.417 -6.908,1.068 -10.182,1.923c-3.019,0.799 -5.926,1.754 -8.705,2.892c1.139,-2.764 2.101,-5.678 2.9,-8.697c0.848,-3.281 1.499,-6.689 1.916,-10.19c0.396,-3.238 0.594,-6.561 0.594,-9.942c0.007,-3.387 -0.198,-6.703 -0.601,-9.949c-0.403,-3.5 -1.054,-6.908 -1.931,-10.189c-0.77,-3.019 -1.732,-5.918 -2.878,-8.704c2.786,1.145 5.679,2.114 8.691,2.892c3.281,0.877 6.682,1.506 10.189,1.93c3.253,0.396 6.569,0.601 9.949,0.601c3.38,0 6.704,-0.198 9.949,-0.601c3.515,-0.417 6.916,-1.061 10.197,-1.923c3.005,-0.785 5.911,-1.754 8.69,-2.892c-1.138,2.779 -2.1,5.678 -2.885,8.697l-0,-0Zm-58.527,16.03c0.085,1.358 0.12,2.737 0.12,4.108c-0,1.372 -0.043,2.744 -0.12,4.109c2.92,1.704 5.791,3.655 8.563,5.833c0.396,-3.238 0.594,-6.562 0.594,-9.942c0.007,-3.387 -0.198,-6.703 -0.601,-9.949c-2.765,2.185 -5.636,4.137 -8.556,5.841l-0,0Zm32.583,27.521c-3.38,-0 -6.703,0.198 -9.949,0.601c2.171,2.779 4.137,5.635 5.834,8.563c1.365,-0.078 2.729,-0.113 4.115,-0.113c1.372,-0 2.751,0.035 4.109,0.12c1.697,-2.928 3.655,-5.791 5.84,-8.57c-3.252,-0.396 -6.569,-0.601 -9.949,-0.601l0,-0Zm-0.007,-55.883c-1.372,0 -2.743,-0.042 -4.108,-0.12c-1.697,2.927 -3.649,5.798 -5.841,8.57c3.253,0.396 6.569,0.601 9.949,0.601c3.38,-0 6.703,-0.198 9.949,-0.601c-2.185,-2.765 -4.136,-5.636 -5.834,-8.563c-1.364,0.078 -2.729,0.113 -4.115,0.113Zm-32.576,28.362c0.085,1.358 0.12,2.737 0.12,4.108c-0,1.372 -0.043,2.744 -0.12,4.109c2.92,1.704 5.791,3.655 8.563,5.833c0.396,-3.238 0.594,-6.562 0.594,-9.942c0.007,-3.387 -0.198,-6.703 -0.601,-9.949c-2.765,2.185 -5.636,4.137 -8.556,5.841l-0,0Zm32.583,27.521c-3.38,-0 -6.703,0.198 -9.949,0.601c2.171,2.779 4.137,5.635 5.834,8.563c1.365,-0.078 2.729,-0.113 4.115,-0.113c1.372,-0 2.751,0.035 4.108,0.12c1.698,-2.928 3.656,-5.791 5.841,-8.57c-3.252,-0.396 -6.569,-0.601 -9.949,-0.601l0,-0Zm-0.007,-55.883c-1.372,0 -2.743,-0.042 -4.108,-0.12c-1.697,2.927 -3.649,5.798 -5.841,8.57c3.253,0.396 6.569,0.601 9.949,0.601c3.38,-0 6.703,-0.198 9.949,-0.601c-2.185,-2.765 -4.136,-5.636 -5.834,-8.563c-1.364,0.078 -2.729,0.113 -4.115,0.113Zm0.007,55.883c-3.38,-0 -6.703,0.198 -9.949,0.601c2.171,2.779 4.137,5.635 5.834,8.563c1.365,-0.078 2.729,-0.113 4.115,-0.113c1.372,-0 2.751,0.035 4.108,0.12c1.698,-2.928 3.656,-5.791 5.841,-8.57c-3.252,-0.396 -6.569,-0.601 -9.949,-0.601l0,-0Zm24.013,-33.362c-0.396,3.239 -0.594,6.562 -0.601,9.949c0,3.38 0.205,6.697 0.608,9.942c2.765,-2.185 5.636,-4.136 8.556,-5.841c-0.077,-1.364 -0.12,-2.736 -0.12,-4.094c0,-1.386 0.043,-2.757 0.12,-4.122c-2.92,-1.704 -5.791,-3.656 -8.563,-5.834Z" style="fill:#e9a65b;fill-rule:nonzero;"/></g></g></svg>