<?xml version="1.0" encoding="UTF-8"?><svg id="Layer_2" xmlns="http://www.w3.org/2000/svg" viewBox="0 0 124.1752 124.1895"><g id="Components"><g id="_4d242af2-080f-4c9d-85f3-bf09a0d3ece3_1"><path d="M66.1995,94.6816c-1.3577-.085-2.7366-.1201-4.1084-.1201-1.3859,0-2.7505.0354-4.1155.113-1.697-2.9275-3.6626-5.7839-5.8335-8.563-3.5001.4172-6.9083,1.0679-10.1824,1.9231,2.2559,2.5388,4.2993,5.1904,6.1237,7.9058,6.0599,9.1287,9.4823,19.0989,9.4823,28.2488l9.0369.0002c-.0002-9.1501,3.4365-19.1204,9.4963-28.2493,1.8173-2.7222,3.8608-5.3738,6.1166-7.8982l-10.1753-1.9304c-2.1851,2.7788-4.1437,5.6428-5.8407,8.5701Z" style="fill:#51817c; stroke-width:0px;"/><path d="M66.6096,0h-9.037c.0001,9.1501-3.4364,19.1204-9.4965,28.249-1.8171,2.7224-3.8607,5.374-6.1306,7.8984,3.2811.877,6.6823,1.5061,10.1895,1.9304,2.1921-2.7717,4.1437-5.6428,5.8408-8.5701,1.3647.0776,2.7366.1201,4.1083.1201,1.3859,0,2.7506-.0354,4.1154-.113,1.697,2.9275,3.6487,5.7981,5.8336,8.563,3.5143-.4172,6.9154-1.0608,10.1964-1.9236-2.2698-2.5383-4.3134-5.1899-6.1377-7.9053-6.0598-9.1287-9.4822-19.0989-9.4822-28.249Z" style="fill:#51817c; stroke-width:0px;"/><path d="M124.175,57.5657c-9.1357,0-19.106-3.4224-28.2346-9.4963-2.7224-1.8032-5.374-3.8467-7.9056-6.1096-.8625,3.281-1.5131,6.6895-1.9303,10.1895,2.7717,2.178,5.6426,4.1296,8.563,5.8337-.0776,1.3647-.1201,2.7363-.1201,4.1223,0,1.3577.0424,2.7295.1201,4.0942-2.9202,1.7041-5.7913,3.6558-8.5559,5.8406.4031,3.5005,1.0535,6.9084,1.9163,10.1895,2.5315-2.2627,5.1831-4.3062,7.9055-6.1094,9.1357-6.0669,19.106-9.5034,28.2418-9.5034v-9.051Z" style="fill:#51817c; stroke-width:0px;"/><path d="M29.6279,62.0981c0-1.3716-.0354-2.7505-.1202-4.1082,2.9203-1.7043,5.7913-3.6558,8.556-5.8408-.4031-3.5002-1.0536-6.9082-1.9305-10.1895-2.5243,2.2559-5.1759,4.3135-7.8912,6.1094-9.1357,6.0671-19.1062,9.5037-28.2419,9.5037l.0002,9.051c9.1357,0,19.106,3.4224,28.2346,9.4963,2.7294,1.7961,5.3811,3.8538,7.9196,6.1094.8485-3.281,1.4991-6.6892,1.9164-10.1895-2.772-2.1777-5.6427-4.1294-8.5631-5.8335.0778-1.3647.1202-2.7366.1202-4.1084Z" style="fill:#51817c; stroke-width:0px;"/><path d="M86.1044,52.1492c-.396,3.2386-.594,6.5619-.601,9.9491,0,3.3799.205,6.6962.6081,9.9419,2.7647-2.185,5.6357-4.1366,8.5559-5.8408-.0778-1.3648-.1202-2.7365-.1202-4.0941,0-1.3859.0425-2.7577.1202-4.1225-2.9204-1.7042-5.7912-3.6557-8.563-5.8336ZM62.0912,85.5106c-3.3801,0-6.7034.1979-9.949.6009,2.1708,2.779,4.1365,5.6356,5.8335,8.5631,1.3648-.0777,2.7295-.1131,4.1155-.1131,1.3717,0,2.7506.0353,4.1083.1202,1.6971-2.9273,3.6557-5.7912,5.8407-8.57-3.2527-.3961-6.569-.6011-9.949-.601ZM29.5077,57.99c.0848,1.3577.1202,2.7365.1202,4.1083,0,1.3718-.0425,2.7435-.1202,4.1084,2.9204,1.7041,5.7912,3.6557,8.5631,5.8335.3959-3.2385.594-6.5619.5939-9.942.0072-3.387-.1979-6.7033-.601-9.949-2.7647,2.185-5.6357,4.1366-8.5559,5.8408ZM86.1044,52.1492c-.396,3.2386-.594,6.5619-.601,9.9491,0,3.3799.205,6.6962.6081,9.9419,2.7647-2.185,5.6357-4.1366,8.5559-5.8408-.0778-1.3648-.1202-2.7365-.1202-4.0941,0-1.3859.0425-2.7577.1202-4.1225-2.9204-1.7042-5.7912-3.6557-8.563-5.8336ZM62.0912,85.5106c-3.3801,0-6.7034.1979-9.949.6009,2.1708,2.779,4.1365,5.6356,5.8335,8.5631,1.3648-.0777,2.7295-.1131,4.1155-.1131,1.3717,0,2.7506.0353,4.1083.1202,1.6971-2.9273,3.6557-5.7912,5.8407-8.57-3.2527-.3961-6.569-.6011-9.949-.601ZM62.0841,29.628c-1.3717,0-2.7435-.0424-4.1083-.1202-1.6971,2.9273-3.6487,5.7983-5.8408,8.5701,3.2528.396,6.5691.6011,9.949.601,3.3801,0,6.7034-.1979,9.9491-.601-2.1849-2.7648-4.1365-5.6356-5.8336-8.563-1.3648.0776-2.7295.1131-4.1154.1131ZM62.0912,85.5106c-3.3801,0-6.7034.1979-9.949.6009,2.1708,2.779,4.1365,5.6356,5.8335,8.5631,1.3648-.0777,2.7295-.1131,4.1155-.1131,1.3717,0,2.7506.0353,4.1083.1202,1.6971-2.9273,3.6557-5.7912,5.8407-8.57-3.2527-.3961-6.569-.6011-9.949-.601ZM29.5077,57.99c.0848,1.3577.1202,2.7365.1202,4.1083,0,1.3718-.0425,2.7435-.1202,4.1084,2.9204,1.7041,5.7912,3.6557,8.5631,5.8335.3959-3.2385.594-6.5619.5939-9.942.0072-3.387-.1979-6.7033-.601-9.949-2.7647,2.185-5.6357,4.1366-8.5559,5.8408ZM62.0841,29.628c-1.3717,0-2.7435-.0424-4.1083-.1202-1.6971,2.9273-3.6487,5.7983-5.8408,8.5701,3.2528.396,6.5691.6011,9.949.601,3.3801,0,6.7034-.1979,9.9491-.601-2.1849-2.7648-4.1365-5.6356-5.8336-8.563-1.3648.0776-2.7295.1131-4.1154.1131ZM52.1421,86.1116c2.1708,2.779,4.1365,5.6356,5.8335,8.5631,1.3648-.0777,2.7295-.1131,4.1155-.1131,1.3717,0,2.7506.0353,4.1083.1202,1.6971-2.9273,3.6557-5.7912,5.8407-8.57-3.2527-.3961-6.569-.6011-9.949-.601-3.3801,0-6.7034.1979-9.949.6009ZM38.6646,62.0982c.0072-3.387-.1979-6.7033-.601-9.949-2.7647,2.185-5.6357,4.1366-8.5559,5.8408.0848,1.3577.1202,2.7365.1202,4.1083,0,1.3718-.0425,2.7435-.1202,4.1084,2.9204,1.7041,5.7912,3.6557,8.5631,5.8335.3959-3.2385.594-6.5619.5939-9.942ZM76.0918,28.249c-3.1961.6505-6.5123,1.0678-9.8923,1.2658-1.3648.0776-2.7295.1131-4.1154.1131-1.3717,0-2.7435-.0424-4.1083-.1202-3.38-.1839-6.7035-.6082-9.8996-1.2588-10.7479-2.1637-20.2232-6.7881-26.6933-13.2583l-6.3993,6.3993c6.456,6.456,11.0946,15.9312,13.2583,26.6791.6505,3.2102,1.0749,6.5338,1.2658,9.9208.0848,1.3577.1202,2.7365.1202,4.1083,0,1.3718-.0425,2.7435-.1202,4.1084-.1911,3.3869-.6224,6.7032-1.2729,9.9135-2.1566,10.7552-6.7882,20.2232-13.2583,26.6791l6.3994,6.3994c6.47-6.47,15.9523-11.1016,26.7074-13.2583,3.1961-.6505,6.5123-1.0678,9.8923-1.2658,1.3648-.0777,2.7295-.1131,4.1155-.1131,1.3717,0,2.7506.0353,4.1083.1202,3.3799.1839,6.7035.6082,9.8994,1.2586,10.7481,2.1638,20.2233,6.7883,26.6933,13.2583l6.3993-6.3993c-6.4629-6.4629-11.0944-15.931-13.2581-26.679-.6505-3.2102-1.0749-6.5337-1.2658-9.9208-.0778-1.3648-.1202-2.7365-.1202-4.0941,0-1.3859.0425-2.7577.1202-4.1225.1911-3.3869.6224-6.7032,1.2729-9.9136,2.1566-10.7552,6.7953-20.2162,13.2583-26.6791l-6.3994-6.3994c-6.47,6.47-15.9523,11.1016-26.7074,13.2583ZM88.0348,41.9598c-.8625,3.2811-1.5131,6.6893-1.9303,10.1895-.396,3.2386-.594,6.5619-.601,9.9491,0,3.3799.205,6.6962.6081,9.9419.4031,3.5002,1.0535,6.9084,1.9163,10.1894.7848,3.0193,1.7465,5.9326,2.892,8.7045-2.786-1.1456-5.6851-2.1072-8.7044-2.892-3.267-.8628-6.6751-1.5133-10.1753-1.9304-3.2527-.3961-6.569-.6011-9.949-.601-3.3801,0-6.7034.1979-9.949.6009-3.5001.4173-6.9084,1.0678-10.1824,1.9233-3.0192.7992-5.9256,1.7537-8.7044,2.8922,1.1385-2.7647,2.1001-5.6781,2.8991-8.6975.8485-3.2809,1.4991-6.6892,1.9164-10.1893.3959-3.2385.594-6.5619.5939-9.942.0072-3.387-.1979-6.7033-.601-9.949-.4031-3.5002-1.0535-6.9083-1.9305-10.1894-.7707-3.0193-1.7323-5.9184-2.8779-8.7044,2.786,1.1455,5.6781,2.1142,8.6903,2.892,3.2811.877,6.6822,1.5062,10.1894,1.9305,3.2528.396,6.5691.6011,9.949.601,3.3801,0,6.7034-.1979,9.9491-.601,3.5143-.4173,6.9154-1.0607,10.1964-1.9234,3.0052-.7848,5.9114-1.7537,8.6904-2.892-1.1385,2.7789-2.1001,5.6781-2.8851,8.6973ZM29.5077,57.99c.0848,1.3577.1202,2.7365.1202,4.1083,0,1.3718-.0425,2.7435-.1202,4.1084,2.9204,1.7041,5.7912,3.6557,8.5631,5.8335.3959-3.2385.594-6.5619.5939-9.942.0072-3.387-.1979-6.7033-.601-9.949-2.7647,2.185-5.6357,4.1366-8.5559,5.8408ZM62.0912,85.5106c-3.3801,0-6.7034.1979-9.949.6009,2.1708,2.779,4.1365,5.6356,5.8335,8.5631,1.3648-.0777,2.7295-.1131,4.1155-.1131,1.3717,0,2.7506.0353,4.1083.1202,1.6971-2.9273,3.6557-5.7912,5.8407-8.57-3.2527-.3961-6.569-.6011-9.949-.601ZM62.0841,29.628c-1.3717,0-2.7435-.0424-4.1083-.1202-1.6971,2.9273-3.6487,5.7983-5.8408,8.5701,3.2528.396,6.5691.6011,9.949.601,3.3801,0,6.7034-.1979,9.9491-.601-2.1849-2.7648-4.1365-5.6356-5.8336-8.563-1.3648.0776-2.7295.1131-4.1154.1131ZM29.5077,57.99c.0848,1.3577.1202,2.7365.1202,4.1083,0,1.3718-.0425,2.7435-.1202,4.1084,2.9204,1.7041,5.7912,3.6557,8.5631,5.8335.3959-3.2385.594-6.5619.5939-9.942.0072-3.387-.1979-6.7033-.601-9.949-2.7647,2.185-5.6357,4.1366-8.5559,5.8408ZM62.0912,85.5106c-3.3801,0-6.7034.1979-9.949.6009,2.1708,2.779,4.1365,5.6356,5.8335,8.5631,1.3648-.0777,2.7295-.1131,4.1155-.1131,1.3717,0,2.7506.0353,4.1083.1202,1.6971-2.9273,3.6557-5.7912,5.8407-8.57-3.2527-.3961-6.569-.6011-9.949-.601ZM62.0841,29.628c-1.3717,0-2.7435-.0424-4.1083-.1202-1.6971,2.9273-3.6487,5.7983-5.8408,8.5701,3.2528.396,6.5691.6011,9.949.601,3.3801,0,6.7034-.1979,9.9491-.601-2.1849-2.7648-4.1365-5.6356-5.8336-8.563-1.3648.0776-2.7295.1131-4.1154.1131ZM62.0912,85.5106c-3.3801,0-6.7034.1979-9.949.6009,2.1708,2.779,4.1365,5.6356,5.8335,8.5631,1.3648-.0777,2.7295-.1131,4.1155-.1131,1.3717,0,2.7506.0353,4.1083.1202,1.6971-2.9273,3.6557-5.7912,5.8407-8.57-3.2527-.3961-6.569-.6011-9.949-.601ZM86.1044,52.1492c-.396,3.2386-.594,6.5619-.601,9.9491,0,3.3799.205,6.6962.6081,9.9419,2.7647-2.185,5.6357-4.1366,8.5559-5.8408-.0778-1.3648-.1202-2.7365-.1202-4.0941,0-1.3859.0425-2.7577.1202-4.1225-2.9204-1.7042-5.7912-3.6557-8.563-5.8336Z" style="fill:#e9a65b; stroke-width:0px;"/></g></g></svg>