<?xml version="1.0" encoding="UTF-8"?>
<svg width="1200pt" height="1200pt" version="1.1" viewBox="0 0 1200 1200" xmlns="http://www.w3.org/2000/svg">
 <path d="m1160.6 318.98-254.48-254.48c-2.8594-2.8594-6.75-4.4531-10.781-4.4531h-553.03c-4.0781 0-7.9219 1.5938-10.781 4.4531l-156.47 156.42c-24.469-12.141-54.094-2.1094-66.234 22.359s-2.1094 54.094 22.359 66.234 54.094 2.1094 66.234-22.359c7.0312-14.156 6.8438-30.844-0.51562-44.859l151.74-151.69h540.32l245.53 245.48v142.78l-37.078 37.078c-24.141-13.078-54.328-4.0312-67.359 20.109-13.078 24.141-4.0312 54.328 20.109 67.359 24.141 13.078 54.328 4.0312 67.359-20.109 7.5938-14.062 7.9688-30.891 1.0312-45.281l42.047-42.047c2.8594-2.8594 4.4531-6.75 4.4531-10.781v-155.44c0-4.0312-1.5938-7.9219-4.4531-10.781zm-1007.4-35.016c-10.406 0-18.797-8.4375-18.797-18.797 0-10.406 8.4375-18.797 18.797-18.797 10.406 0 18.797 8.4375 18.797 18.797s-8.3906 18.75-18.797 18.797zm920.95 294.37c-10.406 0-18.797-8.4375-18.797-18.797 0-10.406 8.4375-18.797 18.797-18.797 10.406 0 18.797 8.4375 18.797 18.797s-8.3906 18.75-18.797 18.797z"/>
 <path d="m656.58 553.74c-24.469-12-54.094-1.875-66.094 22.594s-1.875 54.094 22.594 66.094 54.094 1.875 66.094-22.594c6.9375-14.203 6.7031-30.844-0.65625-44.812l150.56-150.56c2.8594-2.8594 4.4531-6.75 4.4531-10.781v-90.609c25.922-8.4375 40.125-36.281 31.688-62.25-8.4375-25.922-36.281-40.125-62.25-31.688-25.922 8.4375-40.125 36.281-31.688 62.25 4.875 15 16.641 26.766 31.688 31.688v84.281zm-21.75 63.094c-10.406 0-18.797-8.4375-18.797-18.797 0-10.406 8.4375-18.797 18.797-18.797 10.406 0 18.797 8.4375 18.797 18.797 0 10.406-8.3906 18.797-18.797 18.797zm164.58-340.69c0-10.406 8.4375-18.797 18.797-18.797 10.406 0 18.797 8.4375 18.797 18.797 0 10.406-8.4375 18.797-18.797 18.797s-18.797-8.3906-18.797-18.797z"/>
 <path d="m450.28 626.34c-21.422 0.046875-40.453 13.875-47.016 34.312h-178.74l-125.16-125.16v-111.89c26.016-8.25 40.406-36.047 32.109-62.062-8.25-26.016-36.047-40.406-62.062-32.109-26.016 8.25-40.406 36.047-32.109 62.062 4.7812 15.094 16.5 26.906 31.5 31.922v118.45c0 4.0781 1.5938 7.9219 4.4531 10.781l134.11 134.11c2.8594 2.8594 6.75 4.4531 10.781 4.4531h185.21c8.5781 25.875 36.469 39.938 62.344 31.359s39.938-36.469 31.359-62.344c-6.6094-20.203-25.5-33.891-46.781-33.891zm-365.9-230.95c-10.406 0-18.797-8.4375-18.844-18.797 0-10.406 8.4375-18.797 18.797-18.844 10.406 0 18.797 8.4375 18.844 18.797 0 10.406-8.4375 18.797-18.797 18.844zm365.9 299.21c-10.406 0-18.797-8.4375-18.844-18.797 0-10.406 8.4375-18.797 18.797-18.844 10.406 0 18.797 8.4375 18.844 18.797 0 10.406-8.4375 18.797-18.797 18.844z"/>
 <path d="m673.36 760.22c20.625-0.046875 38.906-13.078 45.703-32.531h66.562c4.0781 0 7.9219-1.5938 10.781-4.4531l78.047-78.047h46.266c8.2969 25.453 35.625 39.375 61.125 31.125 25.453-8.2969 39.375-35.625 31.125-61.125-8.2969-25.453-35.625-39.375-61.125-31.125-14.531 4.7344-26.016 16.078-30.938 30.562h-52.781c-4.0781 0-7.9219 1.5938-10.781 4.4531l-78.047 78.047h-59.719c-8.0625-25.5-35.297-39.656-60.844-31.547-25.5 8.0625-39.656 35.297-31.547 60.844 6.3281 20.109 25.031 33.797 46.172 33.797zm293.44-147.98c9.8906 0 17.906 8.0156 17.906 17.906s-8.0156 17.906-17.906 17.906-17.906-8.0156-17.906-17.906 8.0156-17.906 17.906-17.906zm-293.44 81.609c9.8906 0 17.906 8.0156 17.906 17.906s-8.0156 17.906-17.906 17.906-17.906-8.0156-17.906-17.906 8.0156-17.906 17.906-17.906z"/>
 <path d="m188.21 423.47c-27.281-0.046875-49.406 21.984-49.5 49.266-0.046875 27.281 21.984 49.406 49.266 49.5 7.875 0 15.703-1.875 22.734-5.4844l68.906 68.906c2.8594 2.8594 6.75 4.4531 10.781 4.4531h177.42c4.0781 0 7.9219-1.5938 10.781-4.4531l68.625-68.625c24.422 12.141 54.141 2.2031 66.281-22.266 12.141-24.422 2.2031-54.141-22.266-66.281-24.422-12.141-54.141-2.2031-66.281 22.266-7.0312 14.156-6.8906 30.844 0.42188 44.859l-63.938 63.938h-164.68l-64.5-64.5c12.328-24.281 2.625-53.953-21.609-66.281-6.9844-3.4688-14.625-5.2969-22.453-5.2969zm0 68.203c-10.406 0-18.797-8.4375-18.844-18.797 0-10.406 8.4375-18.797 18.797-18.844 10.406 0 18.797 8.4375 18.844 18.797 0.046875 10.406-8.3906 18.844-18.797 18.844zm381.05-37.641c10.406 0 18.797 8.4375 18.797 18.797 0 10.406-8.4375 18.797-18.797 18.797-10.406 0-18.797-8.4375-18.797-18.797s8.3906-18.797 18.797-18.797z"/>
 <path d="m995.26 271.69c-7.7812 0-15.422 1.875-22.359 5.3906l-113.58-113.58c-2.8594-2.8594-6.75-4.4531-10.781-4.4531h-247.74c-8.8594-25.734-36.938-39.422-62.672-30.609-25.734 8.8594-39.422 36.938-30.609 62.672 8.8594 25.734 36.938 39.422 62.672 30.609 14.906-5.1094 26.438-17.062 31.078-32.109h240.84l109.08 109.08c-12.328 24.281-2.625 54 21.703 66.328s54 2.625 66.328-21.703c12.328-24.281 2.625-54-21.703-66.328-6.8438-3.4688-14.531-5.2969-22.266-5.2969zm-441.14-77.859c-10.406 0-18.797-8.4375-18.797-18.797 0-10.406 8.4375-18.797 18.797-18.797 10.406 0 18.797 8.4375 18.797 18.797 0 10.406-8.3906 18.797-18.797 18.797zm441.14 146.06c-10.406 0-18.797-8.4375-18.797-18.797 0-10.406 8.4375-18.797 18.797-18.797 10.406 0 18.797 8.4375 18.797 18.797s-8.4375 18.797-18.797 18.797z"/>
 <path d="m1074.9 441.24c0-27.281-22.078-49.359-49.359-49.359-21.375 0-40.359 13.781-46.969 34.125l-61.266-0.046875c-4.0781 0-7.9219 1.5938-10.781 4.4531l-123.1 123.05c-24.609-11.625-53.953-1.0781-65.578 23.531s-1.0781 53.953 23.531 65.578c24.609 11.625 53.953 1.0781 65.578-23.531 6.7031-14.203 6.2344-30.797-1.3125-44.625l117.94-117.94h54.938c8.4375 25.922 36.281 40.125 62.203 31.688 20.391-6.6094 34.172-25.547 34.172-46.922zm-312.61 175.6c-10.406 0-18.797-8.4375-18.844-18.797 0-10.406 8.4375-18.797 18.797-18.844 10.406 0 18.797 8.4375 18.844 18.797 0.046876 10.406-8.3906 18.844-18.797 18.844zm244.4-175.6c0-10.406 8.4375-18.797 18.797-18.797 10.406 0 18.797 8.4375 18.797 18.797 0 10.406-8.4375 18.797-18.797 18.797s-18.797-8.4375-18.797-18.797z"/>
 <path d="m726.61 951.98v-63.516c0-4.0781-1.5938-7.9219-4.4531-10.781l-124.13-124.13c12.562-24.328 3-54.234-21.328-66.75-24.328-12.562-54.234-3-66.75 21.328-12.562 24.328-3 54.234 21.328 66.75 14.109 7.2656 30.891 7.3594 45.094 0.1875l119.72 119.72v56.906c-26.062 8.2031-40.5 35.953-32.297 61.969 8.2031 26.062 35.953 40.5 61.969 32.297 26.062-8.2031 40.5-35.953 32.297-61.969-4.7812-15.094-16.453-26.953-31.453-32.016zm-172.5-202.18c-10.406 0-18.797-8.4375-18.844-18.797 0-10.406 8.4375-18.797 18.797-18.844 10.406 0 18.797 8.4375 18.844 18.797 0 10.406-8.3906 18.844-18.797 18.844zm156.84 267.79c-10.406 0-18.797-8.4375-18.797-18.797 0-10.406 8.4375-18.797 18.797-18.797 10.406 0 18.797 8.4375 18.797 18.797 0 10.359-8.4375 18.797-18.797 18.797z"/>
 <path d="m1070.4 627.52c-27.281 0-49.359 22.078-49.359 49.359 0 21.328 13.734 40.266 34.031 46.922v46.922l-59.109 59.109h-107.16c-4.0781 0-7.9219 1.5938-10.781 4.4531l-71.203 71.203c-2.8594 2.8594-4.4531 6.75-4.4531 10.781v127.13c-26.016 8.2969-40.359 36.094-32.109 62.062 8.2969 26.016 36.094 40.359 62.062 32.109 26.016-8.2969 40.359-36.094 32.109-62.062-4.7812-15.094-16.5-26.906-31.5-31.922l-0.09375-120.94 62.25-62.25h107.16c4.0781 0 7.9219-1.5938 10.781-4.4531l68.109-68.109c2.8594-2.8594 4.4531-6.75 4.4531-10.781v-53.203c25.922-8.3906 40.172-36.188 31.828-62.156-6.6094-20.344-25.594-34.172-47.016-34.172zm-234.28 462.98c0 10.406-8.4375 18.797-18.797 18.797-10.406 0-18.797-8.4375-18.797-18.797 0-10.406 8.4375-18.797 18.797-18.797s18.75 8.3906 18.797 18.797zm234.28-394.78c-10.406 0-18.797-8.4375-18.797-18.797 0-10.406 8.4375-18.797 18.797-18.797 10.406 0 18.797 8.4375 18.797 18.797s-8.4375 18.797-18.797 18.797z"/>
 <path d="m285.89 211.64c-27.281-0.046875-49.406 22.031-49.5 49.266-0.046875 27.281 22.031 49.406 49.266 49.5 7.875 0 15.656-1.875 22.688-5.4844l67.875 67.875v47.484c-26.062 8.2031-40.547 35.953-32.344 61.969 8.2031 26.062 35.953 40.547 61.969 32.344 26.062-8.2031 40.547-35.953 32.344-61.969-4.7344-15.094-16.406-27-31.406-32.062v-54.094c0-4.0781-1.5938-7.9219-4.4531-10.781l-72.422-72.422c12.328-24.281 2.6719-53.953-21.609-66.281-6.9375-3.5625-14.625-5.3906-22.406-5.3438zm0 68.203c-10.406 0-18.797-8.4375-18.797-18.797 0-10.406 8.4375-18.797 18.797-18.797 10.406 0 18.797 8.4375 18.797 18.797s-8.4375 18.75-18.797 18.797zm105.23 168.71c10.406 0 18.797 8.4375 18.844 18.797 0 10.406-8.4375 18.797-18.797 18.844-10.406 0-18.797-8.4375-18.844-18.797 0-10.453 8.3906-18.844 18.797-18.844z"/>
 <path d="m371.86 125.68c-27.281-0.09375-49.453 21.984-49.547 49.219-0.09375 27.281 21.984 49.453 49.219 49.547 7.5469 0.046875 14.953-1.6875 21.703-4.9688l133.5 133.55c2.8594 2.8594 6.75 4.4531 10.781 4.4531h85.125c8.4375 25.922 36.328 40.125 62.25 31.688s40.125-36.328 31.688-62.25-36.328-40.125-62.25-31.688c-15 4.875-26.812 16.641-31.688 31.688h-78.797l-128.48-128.58c12.891-24.047 3.8438-53.906-20.156-66.797-7.1719-3.8906-15.188-5.8594-23.344-5.8594zm0 68.156c-10.406 0-18.797-8.4375-18.797-18.797 0-10.406 8.4375-18.797 18.797-18.797 10.406 0 18.797 8.4375 18.797 18.797 0 10.406-8.3906 18.797-18.797 18.797zm297.79 129.52c10.406 0 18.797 8.4375 18.797 18.797 0 10.406-8.4375 18.797-18.797 18.797-10.406 0-18.797-8.4375-18.797-18.797s8.4375-18.797 18.797-18.797z"/>
</svg>
