<?xml version="1.0" encoding="UTF-8"?>
<svg width="1200pt" height="1200pt" version="1.1" viewBox="0 0 1200 1200" xmlns="http://www.w3.org/2000/svg">
 <defs>
  <clipPath id="a">
   <path d="m222.14 333h755.71v534h-755.71z"/>
  </clipPath>
 </defs>
 <g clip-path="url(#a)">
  <path d="m597 519.03c-42.16 0-74.973-42.188-74.973-92.965s32.812-92.965 74.973-92.965c42.156 0 74.969 42.188 74.969 92.965s-32.812 92.965-74.969 92.965zm0-23.988c27.402 0 50.98-30.316 50.98-68.977s-23.578-68.973-50.98-68.973-50.98 30.312-50.98 68.973 23.578 68.977 50.98 68.977zm20.746-6.043c18.031-11.02 30.234-35.348 30.234-62.934 0-38.66-23.578-68.973-50.98-68.973s-50.98 30.312-50.98 68.973c0 26.809 11.52 50.59 28.82 62.035l21.305 14.102zm-46.672 20.758c-27.723 6.793-46.691 24.988-48.844 45.262h143.54c-2.0469-19.293-19.316-36.758-45.117-44.266l-24.527-7.1328zm-49.047-83.691c0-50.777 32.812-92.965 74.973-92.965 42.156 0 74.969 42.188 74.969 92.965 0 27.023-9.332 52.121-25.023 69.469 26.125 13.594 43.02 36.906 43.02 63.34 0 3.4023-0.28125 6.7812-0.83984 10.121l-1.6797 10.012h-186.89l-1.6758-10.012c-0.5625-3.3398-0.84375-6.7188-0.84375-10.121 0-27.887 18.789-52.219 47.215-65.406-14.621-17.258-23.223-41.457-23.223-67.402zm-200.93 380.86c-42.156 0-74.969-42.188-74.969-92.965 0-50.777 32.812-92.965 74.969-92.965 42.16 0 74.973 42.188 74.973 92.965 0 50.777-32.812 92.965-74.973 92.965zm0-23.988c27.406 0 50.98-30.316 50.98-68.977 0-38.656-23.574-68.973-50.98-68.973-27.402 0-50.98 30.316-50.98 68.973 0 38.66 23.578 68.977 50.98 68.977zm20.75-6.043c18.031-11.02 30.23-35.348 30.23-62.934 0-38.656-23.574-68.973-50.98-68.973-27.402 0-50.98 30.316-50.98 68.973 0 26.809 11.523 50.59 28.82 62.035l21.309 14.102zm-46.672 20.758c-27.723 6.793-46.691 24.988-48.844 45.262h143.54c-2.0469-19.293-19.312-36.758-45.117-44.266l-24.523-7.1328zm-49.047-83.691c0-50.777 32.812-92.965 74.969-92.965 42.16 0 74.973 42.188 74.973 92.965 0 27.023-9.332 52.121-25.023 69.469 26.121 13.594 43.016 36.91 43.016 63.34 0 3.4023-0.28125 6.7812-0.83984 10.121l-1.6758 10.016h-186.89l-1.6758-10.016c-0.55859-3.3398-0.83984-6.7188-0.83984-10.121 0-27.887 18.785-52.219 47.211-65.402-14.617-17.262-23.219-41.457-23.219-67.406zm638.76 92.965c-42.16 0-74.973-42.188-74.973-92.965 0-50.777 32.812-92.965 74.973-92.965 42.16 0 74.973 42.188 74.973 92.965 0 50.777-32.812 92.965-74.973 92.965zm0-23.988c27.402 0 50.98-30.316 50.98-68.977 0-38.656-23.578-68.973-50.98-68.973-27.402 0-50.98 30.316-50.98 68.973 0 38.66 23.578 68.977 50.98 68.977zm20.746-6.043c18.031-11.02 30.234-35.348 30.234-62.934 0-38.656-23.578-68.973-50.98-68.973-27.402 0-50.98 30.316-50.98 68.973 0 26.809 11.52 50.59 28.82 62.035l21.309 14.102zm-46.672 20.758c-27.723 6.793-46.691 24.988-48.844 45.262h143.54c-2.0469-19.293-19.316-36.758-45.117-44.266l-24.527-7.1328zm-49.047-83.691c0-50.777 32.812-92.965 74.973-92.965 42.16 0 74.973 42.188 74.973 92.965 0 27.023-9.3359 52.121-25.027 69.469 26.125 13.594 43.02 36.91 43.02 63.34 0 3.4023-0.28125 6.7812-0.83984 10.121l-1.6797 10.016h-186.89l-1.6758-10.016c-0.55859-3.3398-0.84375-6.7188-0.84375-10.121 0-27.887 18.789-52.219 47.215-65.402-14.621-17.262-23.223-41.457-23.223-67.406zm-50.23-312.63h58.477c49.688 0 89.969 40.277 89.969 89.965v87.715h-23.992v-87.715c0-36.438-29.539-65.977-65.977-65.977h-58.477v43.484l-65.977-47.98 65.977-47.984zm-422.84 130.45h35.984l-47.98 65.977-47.98-65.977h35.984v-44.984c0-49.684 40.281-89.965 89.969-89.965h77.969v23.992h-77.969c-36.438 0-65.977 29.539-65.977 65.973zm344.87 200.93v-35.988l65.973 47.98-65.973 47.984v-35.988h-196.43v-23.988z"/>
 </g>
</svg>
